<mxfile modified="2022-05-16T17:02:47.347Z" host="app.diagrams.net" agent="5.0 (Windows NT 10.0; Win64; x64) AppleWebKit/537.36 (KHTML, like Gecko) Chrome/101.0.4951.67 Safari/537.36" etag="v7BGURa2ObK9Q7kD1iao" version="17.5.0" type="github">
  <diagram id="Ht1M8jgEwFfnCIfOTk4-" name="Page-1">
    <mxGraphModel dx="1422" dy="786" grid="1" gridSize="10" guides="1" tooltips="1" connect="1" arrows="1" fold="1" page="1" pageScale="1" pageWidth="827" pageHeight="1169" math="0" shadow="0">
      <root>
        <mxCell id="0" />
        <mxCell id="1" parent="0" />
        <mxCell id="jZVaUwOg5UY3L9NAnvdq-71" value="AWS Cloud" style="points=[[0,0],[0.25,0],[0.5,0],[0.75,0],[1,0],[1,0.25],[1,0.5],[1,0.75],[1,1],[0.75,1],[0.5,1],[0.25,1],[0,1],[0,0.75],[0,0.5],[0,0.25]];outlineConnect=0;gradientColor=none;html=1;whiteSpace=wrap;fontSize=12;fontStyle=0;shape=mxgraph.aws4.group;grIcon=mxgraph.aws4.group_aws_cloud_alt;strokeColor=#232F3E;fillColor=none;verticalAlign=top;align=left;spacingLeft=30;fontColor=#232F3E;dashed=0;labelBackgroundColor=none;container=1;pointerEvents=0;collapsible=0;recursiveResize=0;" parent="1" vertex="1">
          <mxGeometry x="263" y="125" width="1097" height="757" as="geometry" />
        </mxCell>
        <mxCell id="_2yLPOEbKJ7cdSIosTqB-1" value="EC2" style="sketch=0;points=[[0,0,0],[0.25,0,0],[0.5,0,0],[0.75,0,0],[1,0,0],[0,1,0],[0.25,1,0],[0.5,1,0],[0.75,1,0],[1,1,0],[0,0.25,0],[0,0.5,0],[0,0.75,0],[1,0.25,0],[1,0.5,0],[1,0.75,0]];outlineConnect=0;fontColor=#232F3E;gradientColor=#F78E04;gradientDirection=north;fillColor=#D05C17;strokeColor=#ffffff;dashed=0;verticalLabelPosition=bottom;verticalAlign=top;align=center;html=1;fontSize=12;fontStyle=0;aspect=fixed;shape=mxgraph.aws4.resourceIcon;resIcon=mxgraph.aws4.ec2;" vertex="1" parent="jZVaUwOg5UY3L9NAnvdq-71">
          <mxGeometry x="437" y="55" width="78" height="78" as="geometry" />
        </mxCell>
        <mxCell id="_2yLPOEbKJ7cdSIosTqB-3" value="AppRunner" style="sketch=0;points=[[0,0,0],[0.25,0,0],[0.5,0,0],[0.75,0,0],[1,0,0],[0,1,0],[0.25,1,0],[0.5,1,0],[0.75,1,0],[1,1,0],[0,0.25,0],[0,0.5,0],[0,0.75,0],[1,0.25,0],[1,0.5,0],[1,0.75,0]];outlineConnect=0;fontColor=#232F3E;gradientColor=#F78E04;gradientDirection=north;fillColor=#D05C17;strokeColor=#ffffff;dashed=0;verticalLabelPosition=bottom;verticalAlign=top;align=center;html=1;fontSize=12;fontStyle=0;aspect=fixed;shape=mxgraph.aws4.resourceIcon;resIcon=mxgraph.aws4.app_runner;" vertex="1" parent="jZVaUwOg5UY3L9NAnvdq-71">
          <mxGeometry x="477" y="255" width="78" height="78" as="geometry" />
        </mxCell>
        <mxCell id="_2yLPOEbKJ7cdSIosTqB-4" value="Elastic BeanStalk" style="sketch=0;points=[[0,0,0],[0.25,0,0],[0.5,0,0],[0.75,0,0],[1,0,0],[0,1,0],[0.25,1,0],[0.5,1,0],[0.75,1,0],[1,1,0],[0,0.25,0],[0,0.5,0],[0,0.75,0],[1,0.25,0],[1,0.5,0],[1,0.75,0]];outlineConnect=0;fontColor=#232F3E;gradientColor=#F78E04;gradientDirection=north;fillColor=#D05C17;strokeColor=#ffffff;dashed=0;verticalLabelPosition=bottom;verticalAlign=top;align=center;html=1;fontSize=12;fontStyle=0;aspect=fixed;shape=mxgraph.aws4.resourceIcon;resIcon=mxgraph.aws4.elastic_beanstalk;" vertex="1" parent="jZVaUwOg5UY3L9NAnvdq-71">
          <mxGeometry x="447" y="382" width="78" height="78" as="geometry" />
        </mxCell>
        <mxCell id="_2yLPOEbKJ7cdSIosTqB-5" value="Fargate" style="sketch=0;points=[[0,0,0],[0.25,0,0],[0.5,0,0],[0.75,0,0],[1,0,0],[0,1,0],[0.25,1,0],[0.5,1,0],[0.75,1,0],[1,1,0],[0,0.25,0],[0,0.5,0],[0,0.75,0],[1,0.25,0],[1,0.5,0],[1,0.75,0]];outlineConnect=0;fontColor=#232F3E;gradientColor=#F78E04;gradientDirection=north;fillColor=#D05C17;strokeColor=#ffffff;dashed=0;verticalLabelPosition=bottom;verticalAlign=top;align=center;html=1;fontSize=12;fontStyle=0;aspect=fixed;shape=mxgraph.aws4.resourceIcon;resIcon=mxgraph.aws4.fargate;" vertex="1" parent="jZVaUwOg5UY3L9NAnvdq-71">
          <mxGeometry x="697" y="339.5" width="78" height="78" as="geometry" />
        </mxCell>
        <mxCell id="_2yLPOEbKJ7cdSIosTqB-6" value="Lambda" style="sketch=0;points=[[0,0,0],[0.25,0,0],[0.5,0,0],[0.75,0,0],[1,0,0],[0,1,0],[0.25,1,0],[0.5,1,0],[0.75,1,0],[1,1,0],[0,0.25,0],[0,0.5,0],[0,0.75,0],[1,0.25,0],[1,0.5,0],[1,0.75,0]];outlineConnect=0;fontColor=#232F3E;gradientColor=#F78E04;gradientDirection=north;fillColor=#D05C17;strokeColor=#ffffff;dashed=0;verticalLabelPosition=bottom;verticalAlign=top;align=center;html=1;fontSize=12;fontStyle=0;aspect=fixed;shape=mxgraph.aws4.resourceIcon;resIcon=mxgraph.aws4.lambda;" vertex="1" parent="jZVaUwOg5UY3L9NAnvdq-71">
          <mxGeometry x="887" y="355" width="78" height="78" as="geometry" />
        </mxCell>
        <mxCell id="_2yLPOEbKJ7cdSIosTqB-7" value="Elastic Container Service" style="sketch=0;points=[[0,0,0],[0.25,0,0],[0.5,0,0],[0.75,0,0],[1,0,0],[0,1,0],[0.25,1,0],[0.5,1,0],[0.75,1,0],[1,1,0],[0,0.25,0],[0,0.5,0],[0,0.75,0],[1,0.25,0],[1,0.5,0],[1,0.75,0]];outlineConnect=0;fontColor=#232F3E;gradientColor=#F78E04;gradientDirection=north;fillColor=#D05C17;strokeColor=#ffffff;dashed=0;verticalLabelPosition=bottom;verticalAlign=top;align=center;html=1;fontSize=12;fontStyle=0;aspect=fixed;shape=mxgraph.aws4.resourceIcon;resIcon=mxgraph.aws4.ecs;" vertex="1" parent="jZVaUwOg5UY3L9NAnvdq-71">
          <mxGeometry x="447" y="515" width="78" height="78" as="geometry" />
        </mxCell>
        <mxCell id="_2yLPOEbKJ7cdSIosTqB-8" value="Amplify" style="sketch=0;points=[[0,0,0],[0.25,0,0],[0.5,0,0],[0.75,0,0],[1,0,0],[0,1,0],[0.25,1,0],[0.5,1,0],[0.75,1,0],[1,1,0],[0,0.25,0],[0,0.5,0],[0,0.75,0],[1,0.25,0],[1,0.5,0],[1,0.75,0]];outlineConnect=0;fontColor=#232F3E;gradientColor=#F54749;gradientDirection=north;fillColor=#C7131F;strokeColor=#ffffff;dashed=0;verticalLabelPosition=bottom;verticalAlign=top;align=center;html=1;fontSize=12;fontStyle=0;aspect=fixed;shape=mxgraph.aws4.resourceIcon;resIcon=mxgraph.aws4.amplify;" vertex="1" parent="jZVaUwOg5UY3L9NAnvdq-71">
          <mxGeometry x="887" y="75" width="78" height="78" as="geometry" />
        </mxCell>
        <mxCell id="_2yLPOEbKJ7cdSIosTqB-2" value="LightSail" style="sketch=0;points=[[0,0,0],[0.25,0,0],[0.5,0,0],[0.75,0,0],[1,0,0],[0,1,0],[0.25,1,0],[0.5,1,0],[0.75,1,0],[1,1,0],[0,0.25,0],[0,0.5,0],[0,0.75,0],[1,0.25,0],[1,0.5,0],[1,0.75,0]];outlineConnect=0;fontColor=#232F3E;gradientColor=#F78E04;gradientDirection=north;fillColor=#D05C17;strokeColor=#ffffff;dashed=0;verticalLabelPosition=bottom;verticalAlign=top;align=center;html=1;fontSize=12;fontStyle=0;aspect=fixed;shape=mxgraph.aws4.resourceIcon;resIcon=mxgraph.aws4.lightsail;" vertex="1" parent="jZVaUwOg5UY3L9NAnvdq-71">
          <mxGeometry x="707" y="75" width="78" height="78" as="geometry" />
        </mxCell>
        <mxCell id="_2yLPOEbKJ7cdSIosTqB-9" value="Elastic Container Kubernetes" style="sketch=0;points=[[0,0,0],[0.25,0,0],[0.5,0,0],[0.75,0,0],[1,0,0],[0,1,0],[0.25,1,0],[0.5,1,0],[0.75,1,0],[1,1,0],[0,0.25,0],[0,0.5,0],[0,0.75,0],[1,0.25,0],[1,0.5,0],[1,0.75,0]];outlineConnect=0;fontColor=#232F3E;gradientColor=#F78E04;gradientDirection=north;fillColor=#D05C17;strokeColor=#ffffff;dashed=0;verticalLabelPosition=bottom;verticalAlign=top;align=center;html=1;fontSize=12;fontStyle=0;aspect=fixed;shape=mxgraph.aws4.resourceIcon;resIcon=mxgraph.aws4.eks;" vertex="1" parent="jZVaUwOg5UY3L9NAnvdq-71">
          <mxGeometry x="667" y="505" width="78" height="78" as="geometry" />
        </mxCell>
        <mxCell id="-QjtrjUzRDEMRZ5MF8oH-48" value="Python deployment and hosting options on AWS" style="text;html=1;resizable=0;points=[];autosize=1;align=left;verticalAlign=top;spacingTop=-4;fontSize=16;labelBackgroundColor=none;" parent="1" vertex="1">
          <mxGeometry x="260" y="90" width="360" height="20" as="geometry" />
        </mxCell>
        <mxCell id="SCVMTBWpLvtzJIhz15lM-1" value="" style="line;strokeWidth=2;html=1;fontSize=14;labelBackgroundColor=none;" parent="1" vertex="1">
          <mxGeometry x="263" y="110" width="1060" height="10" as="geometry" />
        </mxCell>
        <mxCell id="_2yLPOEbKJ7cdSIosTqB-10" value="Python" style="shape=image;imageAspect=0;aspect=fixed;verticalLabelPosition=bottom;verticalAlign=top;image=data:image/png,iVBORw0KGgoAAAANSUhEUgAAAggAAAIICAYAAAAL/BZjAAAAAXNSR0IArs4c6QAAIABJREFUeF7sfQmYXVWRf9V9vWQjCQEJssgOkkBC0t2JgI5hERSREDT5jywJCCObOIKQdBb1jTMDgphmDcqM4+5Ah+yA4qiETSDp7gCSsENkE2QJkL27363/d997/frd9+69p8659219q79vRs2rqlPnV3Xq/E7dDUH+BAFBoOoQmJK8v27z5i0jqX77yDq7cSRZNJIQRgLZwwlhGII1jAB2QYBdiNL/ORgRBxPQYAAYAun/pEEAWA8A9QDUkP7vCPVA5PwbAGACiBAAEQDqMv9GvQBERGAjgg3g/B+mAKCHgLotwJ0E0A1A3UDYDQDbCHArAG0DpG2IsMW2aZuF+CEAfgR270cAiQ/Jsj8CrP8w1dv7/uCh9nuPwoYPIJl07MufICAIVCkCTmGQP0FAECgDAtPb2xPPPzl4zzqi0Qip0YTWHkC0JxDshWCNBrBHE+IeCDQabBwF6GzeJn+kVvIUYej5WvbQDTaXIqD3LaB3AOAtAngTyXrDxtTfEa1/2GC9jT32m3XdO958/OazP1JPSCQEAUEgagQMC1DUbog9QWAAIDC9PdF04KC9ExbunbJ69kmQdSARHgQABwDSAQC4X99JPXDvTP9oulkz9CpPDrLBZviakdwMBK8AwgsA9BwhvII2/Y1S1ms9uO21p66fuXUAZI9MQRCoOgSEIFRdSMShakfg2NkrdtlpwcFWgvYn2zoIAcaRRROJ4HAEtDL++29+Qg5CEiA3gM7/2kiATwKk/koIT1uEG1Pb4ZV1N89wuhPyJwgIAoYICEEwBE7UBj4C06e3J148dOg+dWQfTERHAuJkBJoEAAcGz17IgSk+Sj120yFN0f6OAI8A4V9sK7XBRvu5JwY996rc+zDw167MMBoEhCBEg6NYqX0EsGne7/ck2nGwBVYTWnAyEXwGEYbqdfuFHCg3eaNcIfOrLvkBJPrIBlyNaN+HhE+m6vD5dddIp8EoJKI04BEQgjDgQywT9EJgSjJZt7l3/H5oJw4lgFMtxGkA8PGiywMaJ1a5rKDKNS0w84xFRA583aPnCGAp2fhHslLPrrvuq2+qZiK/CwJxQEAIQhyiLHNMIzB59r372HWpwwhoBiL8MwAOL4YmbxPT2s+kc1DVnQPVGnCFj15DsH9BmFjVO6T++SeS0z5QqcvvgsBAREAIwkCMqswpjcDRl/9lcO+wdw+kVOIURLoEgPZnb2JCDjyg0n6UMWtDC8wydg683Cvy1fmHvwCkbu1N4KNyD4MUlzghIAQhTtGOwVyb5rSPSCWGHlBHqW+ghbP6XwCkmrx0DtjkqU+Qte+zhLzJiKmqzk0j7s6BKkmcp1PeQTtxbaqeVgwftGHj6mSyl6EkIoJATSIgBKEmwyZO5yMw7sr7hjYO3rk/EHwXCKc7rwjUQ0jIgZADfTZCRFsA8D8ggf/bOXjD6/J0hN6qE+nqR0CzkFb/hMTDeCDgvIr4w55te1tAsy1wLh+Y/gk5EHKgTw76McvoEtCHiHCZlWi8d801Z7xnmo2iJwhUEwJCEKopGuKLEoHJyXuHp3p6v4iEPwUE57sDIf6EHAg5CE8OPDBc25OCs3teszZuWDzD+V6F/AkCNYmAEISaDFvMnE4mrQnbJuxZV48/AcBTo5m9kAMhByUhB7mnXYnSN0P86/bt1s82LJqxJZq8FSuCQPkQEIJQPqxlJE0EnDcZvnpQ/VG2VbccEPbRVA8QF3Ig5KC05MAD3yXbU9bX17fN2BTiQxvRLQGxJAgwEBCCwABJRMqMQDJptexoOQkS9lKAsJcRCn0XciDkoOzkIJ8TPJXooZMev/HMfwhRKHNdkeG0ERCCoA2ZKJQSgea5q05BCxxi0Bj9OEIOhBxUlBzkw/9KT6r7M0+2zXoj+jwXi4JANAgIQYgGR7ESEoGW+XcfQ0j3IMHIkKZ81MtIDnJDmW5GDD1PEYaeL7ixfAmSRqoFYBsIe6AegQUbEHacuPaH572l4YyICgJlQUAIQllglkH8EGiZv3xfwMSfgOBg/fcXcHEVciCdg4jJUx+gpuTAHZAU2fafeqzUGU9dP3MrN6tFThAoNQJCEEqNsNj3RCCZJOue3nsWA9Bp6bcdhqnfgRgLOfCHxwd0VixYQh5Dl/rDS9khXe6Z+urYKkHnwD8gO8imts6FZ86TsiEIVAMCQhCqIQox86H5u/d8FW37xwCQ+VhSmPot5MAwe4QcqIErKznILoT0s5HvpMCa8cT1X12t9lEkBIHSISAEoXTYiuUCBA6+7N7GXUfYfwCgTwOANbDIQRiWw9CN9J4DIQfqxVkZcpDziyBFBH987/3u0zf+/Lwdan9FQhCIHgEhCNFjKhY9EGhecPdpCPQLgLybEBn7ohmY5b6sEGYiDF0hB7w0qM3LCrnOQR45yP+vm5DwXzoWnrmEB4JICQLRISAEITosxZIPAs0LVv4KCb8KCAmvIhgtcEIO/PGUzoE61yreOfByMQUAK07d5czpySTa6jmIhCAQDQJCEKLBUax4IHDs7BW7dDdYDwHAeNfPjEOzGaBCDoQchEmuqiQH/ZyaYKNFeOratjPXm60P0RIE9BAQgqCHl0gzEZg4b8W4hGX9GQB2E3JQCBpjE5PLCrxMG4CXFRQT3w4IszuuP+sWHkAiJQiYIyAEwRw70fRBYOK8e2ZYlv1LLHwbImNfNANVOgfSOQiTXNXdOXDH1nnKgWwg65edC886z2y9iJYgwENACAIPJ5FiItC8YOXlSPhD1/0Gjm6Y+h04tpADIQdhkqu2yEFBrB+kzVtP7Lz9wh7m8hQxQUALASEIWnCJcBACzQtWzkfA7+ceYewTDlO/hRwYJp3ckKgGrqbJQXZ69BLVNTZ1XjvjQ/V8RUIQ0ENACIIeXiLtg0Dz/FWzEeEHRa9LFnLAa5/IPQe8tRW/ew44+fN2dzc0P3Xz2a/zQBQpQYCHgBAEHk4iFYBA83fu/hoS/bRIRMgBp7j7XH4xBU86B+rFOhA6B+5ZEsAHNuBR63501t/U8xcJQYCHgBAEHk4i5YPApAUrjyfAPwk58AKIsclL54C3tqRzwMFpc4+dOlw+Ic2BSmQ4CAhB4KAkMp4IfCr5u/1Tvb0vyT0HQg70lwiDPPUZFXLAgzeNE23eTjv3X992wfs8JZESBPwREIIg2WGEQFNy1RCrl14FQHnPgUn7RDoHvLwTcqCBUx9Y+O677/fsK99w4EEnUkIQJAciRGD69PbEK4cNXokAp7jMahwK9dyRRxn98ZJ7DtS5NPDuOShedwVzJFw/bMSLR61OJnvV+IiEIOCNgHQQJDO0EWj6zqozLYLfCDkohI7BkCLtHKRbysXxY7hh/mIKMlfVeRmGdA546zJzWcFTlgB+0zn8pZmQTMr3G3hoilQBAkIQJCW0EGhJ3rMn9dhvIkJ/7rA2JK1hssLSOQhGTciBNj59CoE5a5rQjl70Oes7xwBykNMh64KOtrOKnzAyWY6iEzsEhCDELuTmE57e3p54+cnBf7AQju8vQOb22MVdq177C/v+wim0gc4yHJTOAS9RpHOggRMj7wDArqsf03XdPz/DMyxSgkA/AkIQJBvYCLR8Z+VngXC1kIN8yBhFWsgBL8eEHGjgxMi7/j7cB7Bl296dt1+4jTeASAkCGQSEIEgmsBCYkvzZoK29uzsvYdkjrcCvTyz7/ULRt2hzFp3v3CDsIAAbCOoyH5MKMxGGrpADXvyFHGjgxMi7QmsEt3csPPsiQDRQ5rkmUgMPASEIAy+mJZnRxPmrpiUQltYKOSCAnQjwkk2wDpH+0N3b/fhhr8CLixfPSPUBtH/yZ4N22zp8DNRbxyLgyUB4OBDtV/ShKU9EGXVWyAEvF4UcaODEyDsfaymilnVtMzt4g4mUICAdBMkBBgIHX3Zv464j7DcBaFSoA3fgWFF1DuglIrp9W2PPDRuSM7oZ03OJjLty6R719ZhEwNMB4OPe+owiLeSAB72QAw2cGHnnay3dPtvUQO/s/WjbFdt5g4pU3BGQDkLcM4Ax/5Z5q04AC/5YzeSAAF6EXvusjuumrWFMiSXS1Lr8AkT4DwAY3a/AKNJCDlj4uvOJgWvA5mfyk/nlJcfXqAgtA6oIb6K1iS7rapt1C2NUEREE5B4EyQEVAoSTFtzzKBFNVkma/R660G4GGy5e+4Op7vcymDlTpOW8FOrlg+qvRcTLAKhBaVbIgRKitIB0DjRwipY87Ujt3PPpG//lbZ4DIhVnBKSDEOfoM+Y+ecGqQ2yC5xmiBiLhyAERrO+45rQjAUp/49XE1hUHW5h6rOjV0vmzFnLAywEhBxo4RUsOstzsps6FM/+V54RIxRkBIQhxjj5j7pPmr/oGAdzMENUUCUEOCIgA7ui4ZuqZmoOGEt/n8vbBowfVPYaA44oMRUoOfDYF1l7BEvLAQd6QGJwctXtZwWte1Ev7dd4069VQC0KUBzwCQhAGfIjDTXDS/LufJ6BDwlkp1A5BDsAhB3R9x9Wnz47WJ5619HcoDqpbDYifzmkIOeCBJ50DDZxMiV62R6AYiQh+1Nk280qeQyIVVwSEIMQ18ox5t8xfvi9AIuJTRihy4Hh929qrp17CcL9kIpn7EurWIeKR3jdumhZ36RyogxaAbSDsYWISOmfV0+qTiPCGRN9Bs9PpTsDop66f+Q++cyIZNwSEIMQt4hrzbV6w6hQkuEdDRXVu6f9dq15nhAnsBzqunjYlOn/MLTmPfo4cumMTAA52W9GaWJ6qkAN1NIQcBGPEyD23yAUdbTPlOw3qxIuthBCE2IZePfGmuSuvsSxsVUtyJEKfwl5b+5+n7VdNb4Jz3pnQUId5d4MzCrQnVEIO1Bkk5CBicuAw7vc7Rr78Mfnaozr74iohBCGukWfMu2XeqjWA0MIQLWnnAAjItml857Wn/zW8L9FamNS6/AIb6L/CPVPv4ROLa7CEvI2bquq8DEPuOeAlWxkvKxR2u+xe++ium897jOeoSMUNASEIcYs4d77JpNXS3bQDEOq5Kt5yoTsHzqWFFR1XT3PebFh1f1OS99dt3vH+FgRs1HdOOgdqzKRzEHnnIG0wiyvCzR0LZ31THQeRiCMCQhDiGHXGnI+Yt2L0YLTeYogGiIQnBwCw/aNeGP3cdVM3h/OldNrN85YeATZodjeEHKgjIuSgpOQgY3w7bd0xovP2C3vU8RCJuCEgBCFuEWfOd+Lsuw9P1NMGpriHWCTkwLm6cFfH1adPN/ejDJpJspq2L92BiMxui5ADdVSEHJSBHKSHsDFxdNfCs+UygzopYychBCF2IedNeGLr3U2JBBl++S0acuB4avX0HPr4D7/yAs/ryklNvKr9/1mJujvUHgg5MMbIUQy8d8L0xgpHL7qcVc6vgvccePlGAHM722b9QOm3CMQOASEIsQs5b8JN31k+2bITBqeKCAst0V/XXnN68VsLeVMoq9SUZLJuy45xztcjA9aUkAN1UKRzUK7OQd44azraZpXoWyvqiItE9SIgBKF6Y1NRz8w6CBGSg0zz88a1V0/7VkWB0Bi8ee6S94BwlLeKkAM1lEIOKkAO0gtt84e9I5/7n/Or9j4fde6IRCkQEIJQClQHgM3m2SsOw3rrWf5UoiYHAHYq9ZnOa894mO9DZSWbZi+ZixZeXeyFkAN1ZIQcVIgcpIe1AFvWtM00vKSojq5I1CYCQhBqM24l9/ro1t8f3JvoYV77j54cAMCOoQ3Dd1mdPK635JONaICxyfZRg3fUvec2J+RADa+Qg0qSg3QLAeGcroWzfq2OlUjECQEhCHGKtsZcj25dcXBvwmIQhOjJQfaWsRc6r556qIbLVSHa3LrUITSJjDNCDtRBEXJQaXKQzdQfdLbNmquOl0jECQEhCHGKtsZcJ7auODihJAilIQcZN/HhjqtP+4yGy1Uh2ty61LlRsV7IASccQg6qgRxk19u9HW0zv8iJmsjEBwEhCPGJtdZMmxbce5BFqRf9lUpJDtKj3tNx9dRTtZyuAuHm1qU7AMj7rYqsp/BYQh4zJfO3PcvrkxWZYxCTKnuUUb006PmOtnMPU8uJRJwQEIIQp2hrzLVpwbKDLKrzIQglJwfOlrWs8+qpZ2i4XBWiTa1LdiBAMUFg7TEsISEH2pGO93sO1HCl825HR9u5Q1RvmlDbEomBhIAQhIEUzQjn0tJ694GQoJeKTZaeHGTHXNFx9dSq/P5CEMzNrUt2QCFBYO37LCEhB9o5LuQgGLL+vKOtO4d23n7hNm2IRWHAIiAEYcCGNtzEvAlC2ciB4/z/dVw99aRwsyi/dnPrkp0A0JAbmbXvs4SEHGiHU8gBlxw4cqlee491N3/tHW2YRWHAIiAEYcCGNtzEJi247wCi7pf7rZSRHKQvp1Nn5zWnN4ebRfm1m1uXOB+9qUuPzNr3WUJCDrRDKeRAhxykCUJPau91t5z/pjbUojBgERCCMGBDG25ikxasPIAIswShvOQgu7O+1XHN6R8PN4vyazfPWWIDAgo5yMdenlbQ3ayL5D0hDEEuCwcgp4PQuPe6W74qBKH8ZaNqRxSCULWhqaxj/QShIuQgff6m7sQenT/60ruVRYI/esucxccQWo8IORBywM8axiZfBnLg+Gv14O5rbp1V8KIv/kxEcuAhIARh4MU0khl9qnXZ/qlE4pWcMUYd6x/YX9j3F4/HwizAc9dcM/UXkUyoDEaa5ty1DAEZN1ZqgZnnuTzKqD6JR09ofcesvUcZi6eSd4/itjeGDNqweIbzHg/5EwTSCAhBkETwRMBFELT2s2jIQdopgpUdPzh9ak2EiAizb1G01JuYyYyEHASjZrt/jihnS0MOmM6VqXOQXmoEH3TeeO6uJpkpOgMXASEIAze2oWZ2zPx79uuB1EZeu7xvqAjJQYYhvDOs8cm9VieTVf89hrGXt48a3JBQtGeZG0NR5IQcDBxykGG+yr8ykoMsQdjUeeO5Pl8iVXorAgMUASEIAzSwYac1Yf6S/eqofiPfTtTkIDOyTXRe1w+m/ZzvR2UkJ865604LcIb/6IxNwVNZyMHAIQfMHCgzORCCUJmaUQujCkGohShVwMemOSs/YSXgb7yhS0MOsmetpzqvOX08z4/KSB19efvgnoZEwAtmmBuDdA40AyiXFYIB88g7n1QkAukgaGZfHMSFIMQhygZz5BOE0pGDPrft3p4vdf1w+t0G0yiLStNVd/0QLbzSezAhB8EddVN8hBxERQ6kg1CWMlGTgwhBqMmwld7plvnL9wWyXtUuQlkFnacVGLN58YAJ3Z9cPGNGiiFbVpEJc9s/lrAT/xBy4AN74P4v5CCHWgUuK+RHTDoIZS0bNTOYEISaCVV5HW25Yvm+MCiIIJS+c+CaMUJbx9WnX1FeFIJHmz69PfHKgdY6ADyyWNJ085N7DoJRl86BNmlnpKIQhGqqLNXjixCE6olFVXkyefa9+9h1va/pnowj7hz0D0+Usi1rYtfVU5+qFqCOumrxBXWW9V9CDjwiIp0DXppWuHOQcZKcxxw3dd54njzFwItabKSEIMQm1HoTnTx7yT52Xb0HQShz5yBbwDJlDDbVbWnc//GbT/lIbzbRSzddtWQiWtAp5EDIgXEOVAk5SK8tIQjRF4kBYFEIwgAIYimmMG72kn0aiwhC5chB/xzxrWGNIw5YnTzO+axyRf6OuuquQ+osfN54YyhSlMsKwYGUywrB+PCfVnDb6dcTglCRUlL1gwpBqPoQVcbB8fNX7d1A9Hr/6NVADnLevPPBlsZ9X7z5FOfTymX9mzh76eEW0gYhBxXoHDCupfttgOwkSY+hPVDWPFOvijoHfbgIQWBnSKwEhSDEKtz8yY6f3753Aw3KEoSqIgd9k9je3UP7P3X9GT5PEPDnypVsvuLOU6C+7h4hB0IOjHOgCslBmhLJJQZuGYiVnBCEWIWbP9kJs1fsVVeHbwSdpkp2QyLnBJcZnGygb3f94Iw2/swMJJNJq2nbEf+L6PWmROapsWhYuawQHIm8ywraEGsrZNPcQC+ThrykqlJyIASBF744SglBiGPUGXPOEAR4w0+0CshBv2tEH9LgHQd3Js+M/NPQzbPbP0do3Y2ADcanRiEHjIzLFxFyEAxY+HsOCu1LB0EzRWMiLgQhJoHWnWbTvCUft6DuTS+9qiIHfSc450ktpL8BpT7bee0MxQue1GgcddVdpyQs/AUC7O4tzTw1CjlQg+2SEHJQbnIgHQTNFI2RuBCEGAVbZ6p+BKEqyUHBxJzHIYHoDtgJ/955w5f/zp33hDlLxyeIrgaEzwDALv56Qg5K/vpkbYi1FWJ/WSE/v6WDwK0S8ZITghCveLNn25K8Z0/o7nVtrrVADjwmuBkAthDQW0i0HgnfSAHsQMsehgT7pd+CiNZIIBoOAIPVABlsRP1dDrV5TwmNMV2iGnpenQ4/bwPNmo4pnYNKdA76xhSCYLg0B7iaEIQBHmDT6bVc1b4n1DfmCEJpyAFzMyn1zV3pHisHKZaQhyG5ITEYXSEHlSQHcomBs/bjKSMEIZ5xV8568rwVo22AtwL3zvR+GWLTVHrhZz7iMVnmWEJCDjgxdckIOag0ORCCoJ20sVEQghCbUOtNtI8gSOcgJAky5RU6xEsuK/CSeyAQWlY+sYRcmMklBl4KxU1KCELcIs6c7xHzfjt6EAxNdxCK/gZCoWXv+/rFNoOXXFYITjXpHFRD56DPByEIzMIYMzEhCDELOHe645JL92joTrwt5ICLWL6ckAMhB2wG6sfA3f/O4qksIW/OL29SNFnoA15HCMKAD7HZBMdduXSPhoYCgiCdAwaYQg6EHNQWOUh/7tnGTZ03yeeeGQs8ViJCEGIVbv5kJ8y992MJ7On/zoGQAwZ4Qg6EHNQeOQDboQhCEBgLPHYiQhBiF3LehCfMbf9YAhszBEHIAQM0IQdCDmqTHGS8FoLAWOSxExGCELuQ8ybclFy1O3bb7wg54OAl5EDIQe2SAyEInDUeTxkhCPGMu3LWTd/+7e7YMPQd8/ccMAumvARJGYv+Lk6fqPnNaIHxlDckGsQibEw8QGeFlyXkMx8C57JC/p90EHihj5uUEIS4RZw530lzl+5mgxXi64iMAibkgBcNec+BBk6MvPO0xtQrdc6y3GAJscmBdBB46RVHKSEIcYw6Y87hCAKjgJW60DIbGOYdErmsIJcV2EnmAVV1dA76+x9yDwKjLMZORAhC7ELOm/DRyd+P6tm54z2etLtZqdQRcqCEKC0gnQMNnBikVDoHvgg4lxi65DFHXr7FSEoIQoyCrTPVsZe3jxo8qEGTIDCKtJADXhiEHGjgxMg7IQeBCAhB4KVb3KSEIMQt4sz56hMERpGOlBz4tHcZbshlBdU3tlggemSSvD45eHlV22WFfm+FIDALY8zEhCDELODc6R7Zeveujdj7Pk+esaEIOTCAkoGrr9UAXXlawSAWfSqmMalecpCh2nKJgZcU8ZISghCveLNne2Trb3ZtxKEMgsAomEIOeLjLZQUNnBh5J5cV2AgIQeClXtykhCDELeLM+R6VXDaybidu0m6ZFioIOeAhLuRAA6cSkgNf0xGOyTLFEvLBrPg9B6r+hxAEXvrFTUoIQtwizpzvUd9aNrJucBBBYBQwIQc8tIUcaODEyDv2ublAMKbkIHOJATZ13fS1UbxAiFRcEBCCEJdIa86zaU77CLQaPvBWYxRpIQc8xIUcaODEyDshBwYIUPYeBCEIvGSMj5QQhPjEWmum/gSBUaSFHPCwFnKggRMj7wy2xrRKjDsHfZPPXGIQgsBLyPhICUGIT6y1Zjo5ee/w1M7uD91KjCIt5ICHs5ADDZwYeSfkwACBflyFIPDSMW5SQhDiFnHmfCcnfz08tXNYHkFgFGkhBzx0hRxo4MTIO4OtUToHblyFIPBSMm5SQhDiFnHmfI+dvWKXnQn6KCPOKNJCDnjICjnQwImRd0IODBAoxlUIAi8t4yYlBCFuEWfOt58gMIp0pOTAZzyGGywi41dOWfa9lDUUhRzwsi+NkwauLqsMPbnnoCgOQhB4qRk3KSEIcYs4c77Hzv7pLjsTo7IdhAAlIQc8RIUcaODE2OQNzs1yWcEfVyEIvPSMm5QQhLhFnDnfKcn2YVt21m8OFBdywENTyIEGTkIOgsHSfwlSxl4wrkIQeCkaNykhCHGLOHO+Uy5pH7ZlRABBEHLAQ1LIgQZOQg4qQQ4y9EEec+QlarykhCDEK97s2Y678r6hDfXbtvA7uREXd5Y5lpDHFEh1oNK9puItL+SAl29yzwEDp9J0DvoGFoLACEEMRYQgxDDonCmPu/KXQxvqdykmCNI54MBXQEBMiYyiNRxo1nTMAfbJZrkhkZWvRLip62Z5URILrBgJCUGIUbB1ptqUXDUEd/ZudekIOeBBKJ0DDZxMiQxDT8gBOw7pDoIQBB5eMZISghCjYOtOdUyyfZiujsgDwD9qG4Whg3rnEdJc/iwYm3WhMbmswIC3tJcV0g5kQycEgRGOGIoIQYhh0GXKgkAQAs1X/iYJBN/joSTkwB8nA2xyxspHDjI8gTZ13XyBfM2Rl/SxkRKCEJtQy0QFAR4CfIJgsAFK54ARhPKSgzQ9cD73LASBEZt4iQhBiFe8ZbaCgBIBHkGoFXJg4Gf+Kd7z0ogKwpBj5t0nmj+S6k0GKq+8p5WxKgSBjV6sBIUgxCrcMllBQI1AMEEw3Pwq0jkw9LVvyyw3OSD/x29LSQ6EIKjXRFwlhCDENfIyb0HABwF/gmC44Qo5UOdaBcmBEAR1eOIqIQQhrpGXeQsCWgRByEFwwhjik96dK9c56JuTXGKQcuCFgBAEyQtBQBBwIVDcQTDc/KRzoM6sKiAH0kFQhymuEkIQ4hp5mbcgwOogCDkYyJ0D6SBIGQhCQAiC5IcgIAj4dBCEHMSBHEgHQQqAHwJCECQ3BAFBwIMgEPNFSQXgyWUFdTZVyWWFfEeknNKMAAAgAElEQVTlHgR12OIoIQQhjlGXOQsCAQhk7kEwIAhCDtR5VYXkQDoI6rDFVUIIQlwjL/MWBHwQMCIIQg7U+VR2cpDd+tWeyYuSGBjFUUQIQhyjLnMWBKLsIAg5UOdTFZMD6SCowxdXCSEIcY28zFsQiKKDIORAnUdVTg6iIgi0fsowqB9yO4DPu6LVSGUlDG+OzdnPG19liiCRViPYBoCbAOltQHgTyH4dKPUKfHL1q4ihJ8SeebUJCkGotoiIP4JAhRFgX2IQcqCOVDnIQdGVBNWuWOx25muO/xLqa460/uRRUG+9pwYlSMJ5aZS+//0W83SNzBQpbQGCTiB6CNBaA42pNXjgn94ON8fa0RaCUDuxEk8FgbIgwCIIQg7UsagRcpDhF9VAEOz0V6PM/yInB17+OIOsB6Q7wYY/wuGfXoOYDNsyMZ9yiTWFIHABJsKm1sXD7brEyDqrfhj0wBA7AY2WDQkbyUpQote2enbWYf1m2km9XLMZuZ164iJdxQhUOJYRDJ+qs78JiN/wBVnIgTr/aogc9H/uuZIdhJogB15x3wRk3w6Ed+LYP65TJ0ZtSQhBKIjX0Ze3j9o5uHGfOoB9bcLxCHgkIR2BRIcBYr1/eP2pr+8voQpthvcr/zxFGHrBu4P7V5Y5lpDHqP7vqVfOnYNPnxGXeyF8DXIq0KzpmBrXW12+GY4XKmcZY9Z8vpbp2wpFy5+BrWduZvQy70GoFEEISw7ywDCCwUNJ205a4XlA+A4k6n+Ph/zuI3V9qn6JeBOEZNKa1DtxP9uGTyLC5wHgVAA4UGdfyYRYyEFwqmuvtqw5IQfBuAo50M47ViqyhLyHrrHOQR4/rhBBGDDkID8fUkD29wB6/gfHPPT36qcB/h7GjiAcO3vFLtvrcaxFdAYCfg0Qd3Nt8Nq1QciBdpFmrRghB0IOtBdjHmSmp8IQY9YoOahcB2FAkoP+HMx0264D6L6hVolCLAjCmEvahw0e0TAWrbp/RaIZgNlHWwpP/9q1QciBkANF0shlBTUdlMsKaozyjvoFOxBfNydZDHj5LzHEgRy4QjMbqPc2HLt6i0HAKqYykAkCtrQuOYCshosQ4ZsA0FiMct5CEXLgk4TlPolJ50A6B9qLUToH7C3EG9vyEoRKk4NszyQfM+2UC1Dw/6kHyJ4KY3b7A+LiFDtkFRQccATh4Mtuahw5/IDxQPQbRDzYH1shB+q8E3LAyh8vIekcGKUX68ZbX8vlztfavCHRM10JNnXdUo6bFGNLDvJJbCcQnoFj//iqepFUVmLAEISjL28f3DN0yOeQ7DsBcBC79R0hc/Q1lbkWFSLSDN2ab9NK50A6B4w8F3JgWEeCT7zpDkLJCUIVkgPt0mzUOfDpcNG/wOH2zxFXaz4Wb5gCBmo1TxDGJNsbhu5sPBUsqx0g/94CPzSkc6DOk3KfxIQcCDkQclCUA0WQmGKk3tRKTxAiJAfam3ofsqZ1LUCf8VN/XD3jsA4SqZPwsNXvquty+SVqlyAkk1bLjiObyKp/HBGZ8xBywO6s5Auy6hJLyGN4IQdCDkxzx2enYJljCXmHphxPK5SRHGRRLGEHQchBcAeZCBL4WTj0Tw8jhmo1R84gmBtr5OOGMjhhbvvH6nDQM5lHFLl/Qg6EHBgfPdSXiOSeA/VCrPnLYGW656DM5KDkBIHCvok4TO0OQyIZ7QEWz2QIZS5DJ2HMP/17Nb26uaYIwpTk/XWbuzf/l4V4rroa+RyBGbFy2/ZX8P0lE2w9F13SDN1Ii63PeAw3zOcpnQPpHLASzAcm03ZxiDEHYOcgbwssTQdByIF6H3Cn5P0wZtTnquUph5ohCBMX3H24RamnESxLjbiQAz5GQg6MOissDmi6GckbErVjwoKaJRSbywoFVTJ6giDkQF2GvVPydYDU4dXwzoTqJwjJpNXUPfGnFuIsAND0N0xrSjoH2kVavRwynRXjOq2h6BLV0ON2cpQmlQI+aAk50M47FtQsoViSgwzXpU1dt3w9us89CzlQV8PAlLQ3Q8OgMXjI715XGyqdhOaGWzpHvCwfPX/V3r0ITwGBQeIKOdAutKxTMVvIY3ghB3JZIcRG7cUsWeZYQrElB7mvOUZFEIQcqDfKwJTM/bgNgCbh2PvXqw2WRqJqCULTvFVnWgj/4/0GRBUYQg6EHIQkMn4AKvcapYB0DlTL1/P3ONxzYJo7ilxnbEaZxxwj6CDUwXtG4c0phandPjhowRogzLLDEGLEIwcHwnbogU/j+D93hcPVTLsaCQI2zV/1E4vgAkDdSwoFCcKIlRs2uaxgRCyUuSedA+kcaC/GPMiEHBivS+ZmVB0EIQbkIJDL+QZrG6Ton3Dc/Z3KUhuxQFURBOdtiL1DBj0IgM1m8wyTYOUmB8yC6SnG1C0C0UePZY4lJJcVtBNX7jnQ3vxYqcgS8h667E8rhPA16IYeJjnI7lkV7iCEqd0l7hywmpHMGPqKqfRpM/RCC46//zntEhNCoWoIwoTZK/aqq088AkD7m80nTIIJOdAu0qwgSedAOgeqwheEkHQOjNelBjmoPEEIU7vjQA5yWfAugH0kjl39Fqv8RiBUFQRh8tzlY1JW4gEE2N1sTmESTMiBcREKVBRyIORAyEFwEy9ifPoG0yQHlSUIYWp3rMhBJroEL0Njo/N0w06zvVJPq+IEYeL8ez+VgNS9ALCrnuseq0F7vQk5EHIQkDTKfFIK+MArlxW0844FNUvIe+gYXlbIB6Iy9yAIOdDa8/rgQnwMx/7paC1dQ+GKEoTmuSuORctyyMFwM//DJJiQA+0izQqSdA6kcxBio47Fo4wR4xOic5CnWuZ7EMLU7lh2DtxlBe1f49jV57BKcgihihGE5rn3HotW7z0AOMLM/zAJJuRAyIF0DkLngCeEEW9+LHMsIekcBAS8vB2EMLVbyEE6jAg22DAHj/zz9Wb7J0+rIgRhwpxV4+vq8M8AZPACpIIE0a4NQg5CbwyeBqRzIJ0D7cWYB5mHLsscS0jIgWI/KB9BqHVy4ENQCvH1TUvNfA0m4TvAwmNxTOnekVB2gjBpwcoDiPAvALAnj8MEIK+JddA7foPjqT1Q1mmmXqQnMZ8xWa6whDzCJuRAyIFp7oQ5EYYYM+b3HHhU1TJcYhByoLXn8faFvwPuvj+OXdytZZspXFaCMDl57/BUd28nIh7M9K9ALEyCSedAOgdyWSF0DvCKlsbyls6BcUwC+ZEeeSp9ByFM7Q5DIvvQVeDBgoshVJ7OgTtlCP6AR95/ssaiY4uWjyBMb0+0HDbkASA6lu2dSzBMgpWbHIRpQzGS0K/F7/XvLHMsIekcaCeuPK2gvfmxUpEl5D20dA78qkcJOwhhavdAIAfM/SCQyyjYINLFOHb1T7RLlEKhbAShef6qXyKA4V2XYRJMyIF2kWZlmVxWCIZJyIF23rH2fZZQlZADzY3B70BUOJsIOwf9e5LzNccLDe8Jy1ih9SePAs9vMWQdNgqdaYepWjoHBjlQNGUWcFsBGz6BY+97n1W+mUJlIQgt81d9EwBu0P9ccwG4LJzyZy7kQLtIsxJHyIGQA+3FmAeZadEPMWbZOwcGG0MOoYB5loAcZDwtFUGoJDlQxICVTgyhKGNiRg4ymYPQhWPvb2KVcKZQyQlC09zlky2rbjUADWL65F1IGHFy2xdyIOTAtNCGKe7SOdDOO9baZgl5Dy3kQFF6yXn7RAk6CGHIgcca1E6BMOufWQOqhRxkCAJByj4fxz3wM/291lujpARhzCXtw4buOvhZANhb32G5rKBdaJk5HfQ0h3JM7UXaZ1FD0SWqoedyPkxxMB1TyIEyfwoFWFCzhIQc6BfZdO8gXTYINnXdGuUlBiEHWuEI0znIH8iGbfAe7YbHrd6hNb6PcEkJQsv8Vf8HACfqOyrkQI1Zudu0clkhOCZCDmJJDopIuSmZMSW0puO5HY+WIERMDtgHH8ZhhAUXQ6iaOgeF00b6PR6x+gvqPUQtUTKC0DRv5QUW4n+pXQg4UjDi5NaOw2UFn9XCwool5BEyIQdCDkxzpxL5mjkS+30JOXgmmvOs2W6X+xCWvsQQSQeB3sutFU0oM3qmBx8hB/34kQ0J+iSOefAF/f3XrVESgjB53orRhPgiAQ7Tc1A6B2q8TBeQ0WrNLFhTVR3Fmi20Zewc5DAyDQhDz1OEoeebuOXOVyEHWjWk/7AfLUEwShnTXBFy0B/zPgzpH3jkA6PVuRAsURKC0DJ/xXoAa4yec0IO1HiZLiCj1SrkQBkQIQfBEJU7X4UcKFM2n7S7S250BMGo3JjmipCDYnKQ/RcLT8ex969Q54S/ROQEwezSgpADdRBNF5DRahVyoAyIkAMhBz4tcWXuKPQCl6zpei4Ys8BMZJcYEnmXGFg4yGUF4xatsutKNhxxXD1iMq9YsYOSFoyUIIxJtg8b2jP4LQAYyndDyIEaKyEH/hgFFExlLVUK+Awr5EDIwcAhB9mZRNNB0CYIprVNOge+nYP8xWnD5Th+tfMOIqO/SAlC8/xVDyHAp/meCDlQY2W6gEw3P9N7DjTHU7JfNTKBzFvpjlKgSsiBqZ/MDczTfMRjssyxhLxjEosbEkPg43NZIR/MynQQTGubkAMWOegTGjR4EB7yu52cilooExlBaF7wu8OQejcAgMVzRMiB9imMWfONW1bGNyRqFq+KkgNNX11BKnfnIIyvDF0hB7xSVbTuGNh6WjbtdpmOV+B48PBl7iAIOeAnX4FkDjpuXtB8PPKBq03Gi44gzFv5ASKO4Dkh5EDIAZvteEBViUIr5EA7Z1n1iyUknQNeYfXbSZRnhvJ2EGqdHGjWrqLphsl5RvfEK1d2bh6KzZ3bdNMoEoLQMm/F2YDWr3iDCznQLrTsfDRNvDhcVjDFxgFfyIF2zrLgZgkJOeAVVmNykC0vZeog1AA5UNZbjbytBnLgzAdTl+MRD2nfixCeIBBhy4K7ndc6NqjzWMiBdqFVJqsho8w5IuQgOCZCDrRzllU/WUKVIweRFfZKdLv062x5OghCDtR7pKphGmLdbN45BI95dLuOD6EJQvO8u/8DkearB9VP2n6b/qD4/pL+IQSYHF1P86Zj+uixzLGEvDPPSFVTySWuqZtPZPySLNCk6XjSOdBa01o8NURMynFDYszIQaZS0qauWy8K/7ln36cYSkgOWKWemXNR1ZKo9oZIamd2cfbi6ThB770IoQjClOT9dVt7tnSrH5cUcqB9CmMlPVtIyIF6tyuQkM6Bds6yajBLSDoH2vlaUAu0YM5+zbFkBEHIgdFhNUpy4BBrgF44Egcjru7lplcogtA8d9WP0IIr2IVEK2mDNz/pHAg5CG7yaCdbXhoLOWCvaekcqHrC7t+jOqEWjWp6CMvoZS4xlKKDEJYcKOqccpkrBTJIRhWXauwcZMhB5q+HxmDTg8+UnCAcfNO9jbu+nVJ8UtI0aYUcqAPITHyvQmKkqqkUCfsNGDOqBV2Ej5ADIQfKHSMAokrkrGmd7dcrDUEQclAlnYP+fEV4Eo984Cj1/pKRMO4gNM2/+98soO/6D2SatEIO1MHT3KxzBuWGxGBshRwIOYgfOShNB0HIQdWRg77FTbgvjl/9unqfMSQIR1/ePrh3yOAt/i9FEnKgXWjZdUnIAYuUcrLfJSPkQDtnWanIEvIeuuw3JIbwNahHXbJul2mdLXYo2g5CrZMDzTyo9ssKxavr+zjuge9xSqRRB2HS3BWzyLJ+7rOq+/9ZE+cgxuVrKv2D9kB5rjN0o0qA9Kg+4zHcMJ+ndA6kc8BKMB+YTAt+iDGFHCjqd3TkINoOgv1ekePaaWB6mSZ3RFbvfcEbilo/cCjtCReUdgP9fI/z7znwnkkvdA8fgc2rlC9O0iYIY5LtDUN7Bm/2fu+BadIGb/KlIQfMIAg54C0WF05MbHUqSclOYdI5kM6Bab4qDicly1nTOuvvUHQdhAKCoAWtQphliyEUb3LQt9yPwXEPPKoq7toEofk7KyagbXUVGzZNWiEHqiBJ5yAIIUZB8FUXciDkIEz+mJ50IxpTy0ywMAG903XrxXuoa5G/BK0/eRQk8ghChP7xmsSMAauNHLi2P4b/gaVQR99ejeMeOk4Vb02CQNgy/+7nAOAQt2EhB9qFVnH46LenE3RXn8mQV2iOJ50D1RrLxkETV5dVhm6knS6f5GS4YZh0mdnKZQVFLpnWWXXgCPDNrlsv3FudzEyCoB4yz1ClOwfsYhxQlrUm7GHHUL/PkvqyQnHgEvhxHLv6raCYaxGECbNX7FVXb70h5EBnGfkEnpUPLCEPZ+Seg+AISedAm9CyUpEl5D20kIOKkYPM9oh/67r1wv11KluhbK6DoJUGQg5Ckeo+Ym0SOJv+GY968M7ICELT/JU/tACv9KRRWkkRzNiCu0DaA2XdZepFehITcqC9EeUYcZAmM5aeJoQcaMeEBTdLSMiBSSHP769rwawjjM903nrhGCP3+iqsc4nB8rhJ0deokIOKkYNMTJ7DcQ98MhKCMO7K+4Y2NvZsAqD6jEHTdpeQA/Ui1FnY+dakcxCMrZADIQemayu4bkX2Jr6iAJnWWb15EsFjXYsuOlpdm/wl0h0ENkEQclBhcpDZw1PWAThh9Ua/qLIvMTTPXXEsWtbDQg44S0g6B9obkXQO8iBjFPdIO10+mx/DjVBFTi4rKIpJechBOvo23Nd120Wf51Q3Pxk+QRByEGrdpAPGWpwB4czqE8zC8Q/+MjxBmLfyMUScLJ0D1RLyCBw7lmzBAiekcyCdA9PcEXKgWtGBxTwQ9ohiomVGSzj/vPebzkUXna3GIooOQoCPLPcZQlHGpcgWY3wvmHJqhvq5Q1RIfXf3/684/sFxoQjC5HkrRttovSXkQLV8hBxI5yDM4mXoSudAtQiLmpzhTmummxkjlr4zKV/nILNXOP+Pru9cdMlVPHC9pXgdBFM8WS1Gj9gX+qoZl4FNDjLgWPAJPPLB17yiyrrE0NS6YrqVwPacAU2My/+GRKaDkRZbIQdCDph55wkUQzfSfJXOgXozNN3MGLGsKnKQfuf+FR2LLm5TYxKmg2CKp5CDNAJRXVYoXPqEZ+BRDywzIwhE2LJg5TMAeFjGSd0U8lfw/SXHanXHCptI2pPLDijkQMiBae4wF5WQA14xcOFUopgEmo1oTC0zWsJ5p+x+PQQ8s2PRRf/LA9mkgxB3csBc534BKBU5yIy3Csc/eJoRQWiZv3xfAOtVIQe+kSv+gb1e2YIFY8g9B8GFTJ5W0CZsrFRkCfnsHv45G2xVY8wiUQ1dl9emm5npeAWbh5YZLWFPcpAe3YYTun588Z9LQxBM8Qx74NPQz594VHkUFVkNTQ7y8ssrFAQp6N26GzZ3flgYf+UlhpZ5K2cAwp3SOfBaOtI50N6IWGvWoOjlHBFyoB0TFtwsISEHRjtsHrZaMGsJ+5ID54deTBzx5K1fX2/kflaJnjlhNwDrXbcNIQcGbfcCCA3i7EV4A83gP+H4Bx7SJwjzV6wFwma9xPH3xPeX9A9hgGDoeoow9DwnL+RAeyMScpAHGSPvIs1Xn/XFcCPUuiz7o4xh6ojpZsYC0We5VJ4cOI6lGnbs+sQNl3+gV+cL9rHnpuwOdv07/f9qiierUOQRHj+vNeMSVefAlYKaPhROJXT3IDu+2o1/w/EPJrUIQtO8JR+3oP5NvaQRcmC8cQYqymWFYFylc6Cdd+qiEY60l4McFPEB1qQ8oDLdzEzHK3Bcy4yWcN5G6qv3Vueiiz+uV+eLpenlE0bDTudpNwVJY7nPEFKKKAUCuIyGbtGmrkFwgkAvHzlwvHgBxz94qBZBaGld8Xmw8Hf8xBFyoF2kWeAKORByEKJgeXXmWOZYQt6hEXKgWNnV0TnIOnlv56KLv8gqRQFC1HXceBhc94T5eyM0N9bA9NTI3Xh3DvojWpfaD8c+krnfMPsXeA9C89yVv0WEr/ISR8iBkINKnMKkc6Cdd6zayRIScsArjgVSVUUOgMBe0LXo0v80mkqeEm046XRA2/NxubQYK6VYQgpbTBuePmnoFgKWUw1hI+1TSP0+oHXNJOzT8IiHV7EIwtGXtw/uHdz4IQBmv70QlD5CDrSLNGs1SuegujoH7Crn4TZjtXqKMPR8QfLQZZljCQk5YK1h312EuWFqnqrzh0uHkRFLolM7b7vkHqPpuAjCiVcBwnU66eiWZfiqnBLThq8dDf0irJXOqSGuFDlwPLPhRpzw4LdYBKFp3sqJFkAnY0b6+cBNXH3L/RqRFlvTQhsmYYQcCDkwLFZp4ExzNsSYcllBUS6rq3PQ5ywSfbLjtkueU9f6YAl67sRfgA0zPaWUaaUUyJgNFGPaEHLgE0j7ZRz/8EEsgjBp3srLCOAmRUrob+FCDhjrUMiBkAONYlcElpAD07oV2QYUFBOt0GoJ522iXD3ceuA7o0YsXjwjxShMgSL0zAlPAOB4Tjq6ZZi+CjkIwD8LDhPKYkN9it374vjHX8+RR78RW+atfBQAPuXvkb8nvr8IOWCsQSEHQg6MV7l0DpQrLADbqDagmiEHzoEcl3YtuujLStgUAkSA8NyJPUCQcIkqU1kpIJ0DZXCiIgfOZQb7izjhkXsDCcJR31o2sn5IYpOQgwIEmLnMuu7nCa6Qg+oiB+yAe7jN0PUUYejp9O1Y5lhC3qPKZQXV1tn/uxbMWsIGnYOMCtows+PHF/9KuQepZvnKlEGwo267kANNJCt5z0Ha1YI8I/geHvXQ9wMJQvPcFcci4sM+FUGnPBknrnsQxmKJtNiatmg9AGfni5ADIQeMPNdZfSxzLCEhB+x1nC+Yh60WzFrCoWqsncCx626+aIPR9PKU6KlP7wr1g97P/ZNyCkqBvHn5ece04VuWNfQ9w2qo32er2shBhjA8hOMf/qdAgtAyd/mVgNYPi8PiD4jvL+kfwgDJ0BVywFvfLpwYuHpaDdALNGk6nuOEPMoYHGBTQhsiJtI5UKy56icHRLTloHfvH7l48eLw9x88+7m9gOiNzB7DKUcMoajqSZT7Q84Ww/8gGKIiB2y8C53xqRnOdxka9hyCYxd3Oxqe70Fonr/qfiSa4jYp5EC7SHPWibOajHJNU0nIgToaNUdmfaoDKzVYQt6YlYMcFLln6m8lCG31k4NMYPH6zkUXXaVeGGoJevaE44Dwz7xaxoilkIMA0E3zK9e6CD77IzTh+Ie6PAnC/uf+bNDuHx+1DRHzyIOQAyEHlSi00jnQzjtG7TVkpBlXhBzUfOcgt00QHd112yWPqbd/tQQ9e8INYOO/MiRDirASPJurXkNp6OerD/TOgWuueDZOePA3ngShZd49RwGk1vXLCznQLtLqJZDpwxnlqqaSdA7U0ZDOgRojIQcMjExPdpprOh2L3P9j+OUlYve+t23ILht/ft4OQwMuNdpw4kYA2C90rYyqc+AJjwHOLjuG+v2MLCTUpvmVc6B4fK8pEbThhIeu8CQIE1tXnJWw8NcBFCz9ky9UoROXEQRPEYaeZ3g89Nim2IIFIws5CF4p0jnQLrSsVGQJeQ8tnQNFcTct3gYxiaDGEsH1XbddEs3lBecJhu0FTzAUocWYp5ADXo4xoGQxAT87CI/i+IeO8SQIzXPv/jGifWHQ8VbIQRj2XgZyUBQgo4wKvtsoysXsymYhB0IOQq4vPwBLlrO1RQ7S8FiJcZ23XPjXkEfazGFx/ZQ9Aev+7m+LUX+ijE1U9S9nh+F/EJChb0jMWw9Grmgfgnvh+YcG4QxIFd2k2DxvxbMIcJj2GouA1SqTVToHSoiKWztGGSXkQIk0A9dI89Vn02S4YXgtK9tE9Ce0wUOzHPNpVGrouuIUoBflBuQ3ppbbWsJ5OBno5fzN6BLAa12LLnEuB4Qx1m91/fGTAK3HvZcMY4goYyPkoCAM2uQgo9/bezg2P+pwgf6/pjntI6zEoE0A5Pl0g28chRwot5Oy3HMQ1eIIqhtRLmYXatI5CE4iw4UeZg+QywqKdZ0XE8Y+2G9MSzhScuAYQwumdtxyyUpG0WKJ0DMn3gQElxULM+YZZT2Jqv7l7DD8D0Ko9joH/bOx4HQc99AKFxFoaV3ZAhat8ZqzkAOfExxvCRlydY0EjWpxCDngbwp+ktI5YK0Kd6pp5HqRdekccMklEdAOpOEbFl26hRckheUkWDDjxI8AYKhbkhFPIQe8WsOAktW90bJDrXjUw9cWEIQVZ4EF2RsUGXxXOgeMNSb3HASDJJ0DbnHPybEWOkvIp66U+7JCCF8rQmhrs3OQbUVc1bno0usZhYslQk+etAfU228LOchDoOKdA4/DrNYSI+cNSb/F8Q+f5b7EMHf5Dy3EK/ODXZrOAdPbSE9ipi1a6RyU7gt3Qg6EHDBrgSdQ0jnQzZ8E2ruvufUb77F2f4YQbTh+IoDVyThOMkU08yGqzqnLjqYPrg0zhG7hCcDYVIGilp2sMNLTOP6RI90dhLkr7wfsf4OikAMhB0IOmDkQKZn1GZO10FlC0jlgbH7FIrXcOXBeWE7fXbfo0n83mrqPEj1z4v8AwXnZ7oTadFVfVmCudb9Zhu4cmOZXwJFeuxzkFHpg/MOD8gkCNs9b/hECDguEKdRlBaa3kRZb6RzonjIKiazPbqIuBr4S0jnQjglr6bCEhBwYZa5p8TaISaga6129nXsPMJXYtfP2Cz80mr6HEt0/ZRCMrnPuP6hn3WQl5CAAetP8Kgk5yBjtgYNyBKHliuX7wiB8VchBH+AGCzutKvccBBcgIQdCDkzXluKEF+UG5AqSafE2mGcJyEG2LJ3bedslv4iKHKQjseFzhwDQ87EnB2kwDGLtdRIzNhPmsoLfurJP7icIc5d+FjCxWi4rKIpQ4AoTciDkwHiFez+WzjLHEpLOgfbuGKboGsQkFDkIGI/g/Q/revd68eZv7tSGIOjMu/6EbwOC+obHKIlbkS0DnKK2JbEAACAASURBVF0l3lDfdXAPY8OUfJawc5A7I9uX5ghC8/yV5wDRLz3zoVSJGzDHzE+mwHvosU2xBQugEnLgX0scTE0XgkE8QuUrM+883TLw1esUkVugnHIeYsyyv+cghK9lf1phgJAD56WJQBPWLrr0CU42cWWofXoCxr7/FiDsrjozBdcF7ohe24FhPuXUDPXjQA4yc1yYIwhNc5f9O6K1oChcoYotMwCRFts4kAMmrv5sz+c0GbRYTccUcqAugaY5axqTSnyVMYSvQg6CzvGK9MLfdN560TmAGCYAxdvCMyccCgTPmZMDJhH3JcuG03GpGdrI+RRSvy+vjc2EIbEK/DOml/V3EOauWAIIZ7gCHhtyYByhCtxzENJXvxUdaNZ0TCEHQg40NwLvE0qZCW3ecFqpryWcGaSENZYAdjY27tj10bYrtqvzUE+Cnj1+Ptj4H+YEQQOrIlENXddp3/d/6E0+HTdDH3IjZfWNzZScHDiTfKKfIMxb8QwAfNLtv6n3TD1PMaYup5CwTLGEfBKo3JcVQvoq5CDESczvilfEMWGZYwn5bKryEiT/JAhTdA1iUkJykJ4jJpo6b72wS3/3C9agvxw9GEYOfhsAd/GVjOrAEdUe4bJjECsXtwipX/2dgyx5pQ/TBGH69PbEKwc3bAfE+lKz2kIC5U4wU+A99FimWEJCDrQrjINrHrZaMGsJR3AKyx3jFFXR62cDX4MWAMscS0jIgVHO5ilpwawlHEHOqsezAX+wbtHFc7VhYCjQ08cdC5b1sJADBlh+B1l1CP33HRdZ0fUhYGCPn9IEYUJyxV6JbnhDyAEXbOkc+CMl5ECdRRUgtHJDYkBYBlbngAif7Fp00YSo7zvoA5A2nHgPAJ3iCah0DtR5ViPkwJlImiA0z182Cch6vJTXw6RzoJEVkbXD9Nhif2Zr+OpaDkIOhBwwOzImx8+oNp+inB04nQMA2AS9idGdt1/Yo85FfQl69qQDwE69XBPkwJWKpjUtO9NY3HNQHNU0QZg4f/k0y8alkT5W6JVBnjEyDVwFTmFlfwmSKTaKIl2yQiuXFYJLbgVyVjoH6hNd7miss2EarM20ioFef2s30EHnpsRu2H7I04u+/ZrOTHRkaf3xSUD8XpFOVDUlyj0iZ8sU83iTg1wHoWnessuQ8CadRNE+bUYZeK9FxsoBlpAPDHJZwT8/pHOgXjtCDrTJE2vjNl3TA+uygvNiXAvqpqxd9PW/qHPRTILWnzwKsPdNAGgMasK4rWvEJ8o9YqCSAyOO6RMDRmjSHYSmuct/iACurzjyUogxgu+EmLocqsoyxRIScsALfJ6UkAM1ZEIOhByY1h+WXg9a+NWOWy5eos5Fcwl6+rhLwLJuFXLAxdC0oxrAjFnpkO+fOTlwul2ZexBal/0WEL/KnXZGjulplKxQOgeKEAXEJKoWYFF1MF0EzPwpynUDvZwNhm6k+eqzThhusNeXV0bIZYWAdTLwOge2jeev+/HFv9Kr33rS9Oyxu4A9yLl0MYK3nFhJHrCVaOh77oeG+rm9OaS+8VNc1UMOHE/6CMJqQPwsP2WY4EVabCtwCpN7DhSFVsiB9smYtXRYQt5DCzngkQNtiLUVSvoSpOwkd9o2nrvuxxffwa/dZpK04YRLAeAWIQcc/EzrYnWRgxxBaJq7/AUEOJgzdfbJRsiBGk4XRgYFiLNaB0znQKNrVYQ8A9tI81U6B5rJ7xYvWc5mh2Gkg4ZDPkStxPkKsIXAmt616KLfq7EOJ0HrpoyEQYlXgSDzYqSo4hPlmsvZ0g5uQahD6td858Ad4Ow9CMu2IuAQdRoxwYsy8HJZQRGWgJhEtZBdHjhGTRkyM3/yxwu98BljRpqvQg5C1ZGS5exAIgf4di+mTnjy1m+sV2MdXoKeOTEJRJknF6KMT5Etxlr1mk7oGtGXG4bjex3UjEx5KGnb8VFg23EL4uTkvcNTO7s/VKcRc4RIi60pYExfPSctTyv454KQA6N1wkpHlpDPaVVenxycswOJHMATg4Y1/tMj152/WZ2L4SVo3ZT9oTHxUuajkEH2NPN3wJGDPPakCUUGVdO9zvM0VdAV4eZBsQ84acHKA+yU7f3iCy9mpJ0jRmiFAMx0vGyQjNQ1lFyiGnpFuAfoRrmQXTmQZ1jLdS3hvPVioKeTs5GS2TCLPMQ85Z6DgIpkmq/Ko7IPUTPU89sg3KOkAOiOzkWXns0t92HlyLmJfcMJiwHhy0IOVGhmc81oKVcnOXBmjJNblzWlEDtYDFzIgQcCGhkh5EC1yoQc8BDK4iSdA1bd0liivqc5VVzSY2gPlLWq1NtMgBd3Lbr4Nyo3ovydnjnhVCBYJeRAherAJAdpgtA8e8XnIEF/CKDEKnR81oUy6X3smrIp0/GyC9tIXUNJyIE6j3I1VgPXIqsMXekcaMSiT5SBq6/VSnS7uHtvodMG8ywZOUAioK7GnTtOevSnV7zPC1o0UvTml4bAB1tfAsI9WSSMM2wRtAZYu3iYoX4upUPqp+2EIQcepFLbJR8Ftp1gQWxpXf7/CMHjMRnmCJEWWyEHweusEoU2b0xmSlTmFMY8wUWarz5jsnBiCfnwdukcsDYtbYi1FUr5KOM2smlO148v7X+0kLMJRyRD60/4CQB8nYUzZ0whBx4oFYCinX6lJQeOw9g0d9nFCLjI7T3T00iLrZADIQfMvPMEiqEbab4KOVDvC5UgtDXfOUgR4GrstU7rvP3CbWqMo5dIX1qwYVX1kgPmYcBvAqE/vFTFnQM2NLx6iU2ty+Yi4tX9WDIUfZ1g6hYFTsiBkAPT3GGuCCEHvJ3EhVOJYhJo1nRM004XM38K0UsPF4GvObvotIX+Dlbi8523XPhXXrCil0q/86DRehUIM+884NTqIDci7xyEwd0JmWnM8ieZtWFsqkSdAzY0DMezIg5BuBoR52amz1AUcsBblTVdaE2LLTN/itaagV7OBkNXyEEMcjY7RUY6uMHQVoj8sgIBbIUUfaXrJ5eW/KVHgXt55qmFBwDgM0IO/JCKDzlwEMDmuctuBsBvCDlQ1VCNQiLkQAVmHh/VwNXkNCPkQCMWfaIliol0DlyxIIJu27amPfGTi+7lBam0UrT++JsA8LIBSQ7SB9sweZ13MjY2Uzudg74cwKbW5b9ApJms1Iu02HoYYwHPEvKZjrwEyT/ODq7SOQheBxXIWXnPQUBITPNVo1saWbcrz1fEty2yP7/21kueBHQuLVT+j5498Tyw6ad9H/AL1WUpmpHhFCM7aAk5YDUAPMKETfOWL0WiacoUFXKghMh9hcZwUaRHCdAt2SnMtNgazDOtYqCXiwBDN9J89fGX4UaoeQo5GFDkgAiW9hJe/NRtF71TLcQgndnrj58EgH8BgETo7kFU5MC15FgLLeDsE1K/Wh9lZJdRxvx9RJxLDH8EgBMCd79Ii20FTmHyVUZFoRVyIJ0DRhHxBakShDbrjLbb2gqh7jkggNfsVOr8BNU/UqmnEoJym9af+AkA2gAAQ4UceCGQzReDtMlYK1DUtmO6tvrmwhgwQASbW5c9AgjH6K19xqCeBoUcaG9ErDiHiYeQA+2YsOBmCfnUZHnPQcBxsP8nbYi1FczIAcLrKZuuSAH88a+3XfJByHaZunNpKEEdU3aHwYlnAWC3qiEHrhAZxCt/InLPgTozAiG20zcpdgLARO5+bt4yFXKgvREJOciDjFEsIu10+fTvGG6Yr5HstVKfMYKHZjnmcajR0CtKYNPTjemYpmTWJ5aq8pkeTu0rAdhIuJLAvnZnd8Pz6396QVnfeqiahue52HmcsSHxDAD4vClRPe+c3SJRDV3Xhu77P/SnKORAjVlgmJwfCbBl7rL1BDCGt/YNA2/8pSrT8bIL20hdQykytluJQmtabDXwcREcAz3/ClSc/EIO1AWhaL8rUUyUhYfnqlvKNF95m7x3/fNlat0EdDcg/Rx76558r7vhHxt/ft4Ok1lVQodePGkP2JF6ChBGe4+vkRdRrbvIaqnckMghterva2QCgs1zl74EgAe6EiWqoKeNehhj5R9LyGd9ydMK/oUnwwx19l5D4Ywa8xQW7K+ijEaarxXKWbkhMSDIpvkanhwQwD8QYDUg3QuY6oLuhncP3LTrPxYvnpGqxOYedkx64oRDoR4eBYBRQg68EMjmmvH2U6Cobcf0sNg3F8aASgLfL+C8avkNBNgreMNgDOqZbUIOghe0aTKEiYdpsTUYU8gBr54LOSgrOSCAbgD4CAA/QIC3APE1IHsjET2PYL2Itv1Bor7ug82p7g82LLp0Cy+I1S9Fzxx/EqRwGSAMEXIg5KAYgYLDY7aD8B4AZthkpCcxIQdCDgxIhU5rI2M+hQTrbICngehZSsD6RG/qfaT6rb11sDUF9vY6q35nXbfdPXhzT/fmhu7UgZt2tRcvnmGzLjBXf90XDwUBJQK04cQFQPRdAKgXciDkgEMOHBnnJsUPAWC4kAPlGisgUCXa/JTtH4afRSID4rICAcHTAPBHsvBBK2VttGHL2we+UbvtXpNIio4goIsAbTh+KRCe7tR7IQdlIAe+h22/yJl2kvvsMfYi5b7iLeB8i2ELej4DyxjUc77SOZDOgWnu9K8sArKB8BEAugMBOrZDz4vr26r/7nDd4i3ygkCpEKBnpuwPVPd/QHSw/xgaazWqDrPLjsb4nnt7SP2oX4KkTQ4CFFhTYwgZkoNMB6F16TYAHOzGnjGokAODdW3KFMPEo4buOSB6DxDuAMQVVNe4pvPaGU53S/4EAUFAEwF69sT5kKIkANQJOWCc3I1KrOlhON8fn4FZ/jCEQpCDNEFoal26EwEb+l1mDCrkQHO5KmilMogGw6WZcfWTAyJwbgL7pQXUvqn3g8devPmbO01mKzqCgCAAQOum7A+N1h0AOFn9KBsTsag6B64yaLrPZH2O6j0HRid+HyXtKVU3Och2EJb19LNM7Rn2Ras401imWEI+WSyPMgafDKqeHPwFEG7ZnOi++7nrzt/MLFUiJggIAh4I0PoxDUB7XguW9U0AsoQcBKWJaW3ss1npzgGD1SgPnby917kHIYUAFuvlCtI5MChOclkhDzTnyYFfU4oWdd4483EDMEVFEBAE8hAgmp6AZ98/Hwj+LfdWROXmoAFhkS3exlI0Qk7NUD+3N4fUN+6qxo8cpDsITXOW2Yjkc3erKpFMmVSYIEvnoNY6B84Nh0j431SXuq7zh+e+pMoq+V0QEASCEUgTg2fe/woAOI8u9r8JV8iBInWyABltQab7Xb5LYS4rlK9zkPaYMjcp5l1i0FmWpmAZRSbrmJCDWiMHYNOdiIl5a9vOelknu0RWEBAEihGgF77QCN09ZwLSlS5ioNw7NOvugOsc5AGkCUUmCqb7XbWQA8cPp4HL/MtO1yEIzk1heTcpcgyYgmUUGSEHypA4uJpeVzOISVpFqbfWht5vdi087zGl+yIgCAgCgQjQiyftC9095wJZ3wCEPYqEpXOgyKA4dw7MyIGjhc2tS7YD4CD++hRyEIxV3O85wO2Usls7d335FkgmNSgrPwNFUhCIAwL07LG7gD3oBAA4HwC+6PuiIyEHJSQHHoch5dmo0J0SX1ZQntc0ynCBq04HYSuA37u5GRNlgcUS8gmyXFbwz/4q6xwQ/bGXUtOfuOG8D+JQwGWOgkDUCND6k0eB1XsMAHwFCGYAQME7ajxG9C2vmnVXLiuowdWE1LfTyrbDEAwUMScH6Q5CU+uSzQg4TJ3o0jmQzoFvJvYA0ZyOtpk3cK49qHNNJASBeCBArx09GDYPPhzAmgxEXwHEKaDzVFnVkgPlsVZRThkbozJFwlxWKGHngA0NA4MSkgOH3GDTnCWbEHGk9ubH8J1xnTpgWOkcVFfnwDerX6Fee0rnTbNeVa5XERAEYowArZ/eAPDOJyDR8AmwqRmAvgBAxwJgwQeUWMU1oLwy9ftiEXnngL0DemdD6Jcg5Y2vCUW/QwWK2nZMLzX7BqUYqxKTg3QHobl16VsAMDp4Myr4lQUWS8hnWCEH1U8O0AnSnzsWnnNijGu+TF0QyCGQ7gbsGDkMurePAKthBFDK+UruIWBhMxC0AKUfR7S0D2NeCtI5CD5chuIoQg76wHVuUvwbAH7Ch8ppshYN9uMbXiEH1U8OwLYJFnW1nXPZQNsfaP2UYdAweCQ01I0AG3YBouFgJ/YEy94DAEcAwS6AhSc+BgpKvuxcK9S4XsgYUiniGk7poL+5tJ0ofLfDNR2VEzYQyJ8WUgKQ6iHzavpGINwVCEaBBbsC0V4A1BhU1tSjM2Mg5EDIgS8CGuvQM4/c/4gtrUufJ4flFv3JPQfGTD9wnTOLgGc88nS1zGgJZ0bOqRTp9hDh3M62s3+kLnjVK0GvnD4SILUnIH4cCCcD2p8FwhYA2M09f84cFPgq4VcK9DtRks1BY/xCOPzzhANc3rw0CpunZdO1EXCo0YKlDC1l17r0DQQP9yJ3tSbrk4+GNnIhCKkf9ZcZtd0pQw4E+qSxhhjkwAkLNs9d+lcgOMKdVUIOhBx4ZlA3EM3qaJt5B68KVYdU+trvrtv3hG3WQWDhVwBoOiB+rIAJMTZhr/kIOQh97CeNwibkwAMBzZ0sKnIQfJDQW/yh7zvITkoTCt9Fr21n4JGDDEGYs7QDEJoCqyMLLJaQT9LIZQX/1eTgano6MohJWsWbHNgp67SuG8+6T2/lV0aa3pq2B2zvPRwQLwTCL3u/DMwHHzZsQg6EHJRhYwjsHCh/VJz92MlevJBzqiFspN0PqS+dA36RZXYO+gw6n3t+CAE+He40FSbAQg5qgBz0ICW+vLbtzFX8TCyvJCXBghlnjIZBPc6jYvMBMODG24Ciyk7lWicHmhtLfjgj2xikc8BaJYGpxk5YDy6noVvoaGQ5EMKHtE/SOWDlkO9yD8bf+VjT7xHpZPN3TZsGOExgNcZ0iWroFaFuelIwHbNqOgcpG/DcroVn/5qdiGUSJAKEN6aNgl57GhDcxHqpTH5R8S16qgkIOZDOgWk96MstZl0QchCwGMPsIR47JjMk/Q6VIQeU8Wc6rdk5yHUQmluX3AUATgtW0YryihPTOT/jRuoaSkIOVDtdXuPIA1cCQqL5a2+YeQ3PUHmk0h+sqWs8HJCWA8F+eqP65I9GWgVujko7SgFG/dGw4Xly0NQv2tMM9XN2BnDnwPeklp+lTPyUmwMz8w03B0/rOVvMOfi5KJcV1MFTxl8jBkWiPF1sar3r5wg4y+UtS5cl5AFCGNanMaaQA3UC5oqZN64E+PPOhWefxzNUeil6bfpg6O35FiBdnR5NIx3ymFCxo1p2AoSVdpQCQg6UaZSHoQacgcBq2VEIK20pBQJTlfGjG0EhB/57UBHxVSZfViBMDWAWriogB46nzquWb0WAS3LQsPKXJeQdGFNVnd1AyAEv09M4+Qbk4Y6F53yGZ6i0UvTml4bATvxvQPyqXp7m++UzT618DFMYNAbyFdWw4RlaTf2iAmqon7NT650DRXFXwqMUYOz/TBu+rmroey4fQ/1cDoTUj/09Bw5+GhiGJIjYPGfJtYAwm38i03DOtW9k9YzUNZSEHPB26wBygAD/sLds26fz9gt7eMZKI0X0hUbY2NAOCF9yfclOIx0CK66WnTDkgHlqCBTTcja6G9Jyw2qOX5QSYV+ClDe+kSseStp2wuQAc7BAMaYNIQc+BakAPw04lcyNZYshpIw/w0YRsWcclHwQw+Y5i+cBWv/JIyUazhWSA1NVnmMe8TMeMJihKQNoslk6Rk0LoME8A8hBxnt7YsfCWetMZhKFDhFY8MrUm8DCiwAo4cUz+eP44KMFW5iNgUkOosyrIltak3VDq8wVTiSEHHBQCi51GjH0FNXQj0PngLks+6GohhqgEcOIcgAnzrnrUgvwFnUCazgn5EANZ06iusgBAXy3c+E5/64xgUhFaeO0swDov/qfSDAlTgEVQCuVq6EwaEAs5KAALI/4acVfsZOwbDGEoiKIEW0MaRBzthj+B6VoVDckam/qfU6VMAdY0DCElPFn2AiYrtZliTw7zquWzyIixSNsGs4JOdCs5qYboEFM1KfBhzuGv/RZSCbDXizWwCAjSq+fsQ/02n8CgEM9Wbv2dH0UtOwIOdAOpEsh7p0D5o6m3ByYURBy4AGUkANTcuCAiROvWnyqZVkBL8DRqqh5ATJ9ARJzUXmyJVNfw5wSTMesrs4BAPQg9By0duHXXmOWo8jEaOO0/wSgb6c/gJP7MyVONdQ5CEw7zbySzoF0DopWpGYOFdVUQ/2cnZD6xpddpXPgWUe5FTsvbNh81Ypjwep92FvXNMBCDoJjUXXkAFIpaF134znXcnMoCjl6cdoeUGf/GQDHuu1VMTlg8VfmuvEVY+r71kFN/Xzw1V0mRujDdg7yQDaaSglPjaz4M4WkcxCQS2FqgA/+2rkUtgupGFAZfw2Ho+oeuewQYMuclWMJep4ujpSGcy5lIQe1Rg6I4CnYuq25nE8t0MapZwLgTwBgWHTkIIrCEGZRMzcG6RwoSEY2BkYlKGbkwDOXjICTew4K9zGvLGVDG6aOFBwgVZS8ROTAGRbHXNW+5xAr8XffIq1yTsiBBkLV1zlwnE+lrM+uu/GsBzUmEkqUXpn6Y0C8AADcTyhUvKUYZlELOQCQzgHreq/y5KixvIpssXcwn5JvqJ/rZoXUT9upUoLInlqYOlI95CBNECB5f13z9ve7+58zZ6NQkMXSOai1zkHGX7qzY+HMf9YoScai1PH1etj9nfsA6LhiI5VuKYZZ1EIOKk8OPGKgXcoCFFi2GEJCDmqze8QIbbaeqreBQAmN+8NL2DnocxGd/9I8Z8k7ALA7i/16Tk7IgTorTDdAdmb2u5BWYenZSNYha9vOetl412cq0vvTR8BH3Y8B4CeFHBQiwIpVQXzzbWjqF6mG0O878UX1KJuxKwWK2naEHDCXsrdY6PjHvXPgzL+6yIHjUR9BeBqACm4U46aLkIMaJQfOZ9hv7Gw751vcSJvK0WvT94ZUzxoA2EvIQbWRAzaZ9Am/s/61d+MCW2Fayj7+a7kk5MB0bWf4oRbY/nkUKhVLRBDZUwvbgaw+cpAjCE1zlvwJgY7XTxIhB7VKDgCwt4dS+z/ZNusN/bjzNehvZxwIZD8GAB8TciDkoKZygLU5MITksoKiYERMEBkhcTvko8C2wxAMFKlOctDfQWi965dAcA6/7GepHgMXn34UfyjXGMYDyuuTi89sCzsXnuO8e6Bkf/TCF/aB+kbnlc2719TGwDrJMHPRV4yp3wdckbimfn4AcqohbDiXsEKfHPPGN3LFQ0nLjnQOQi3+0PHPW2hacfNM5sw/atupdA5ULzno7yDMXnw1Is7lJ4t0Dmq3c5BZRpZFB625fuYr/JjrSdIrp48EgOcAYQ8hBwOtc+BkkEZh80wdIQdaKyoqghjVgUvIAY+N1GjnoC830/cgTJxz56UWJBjfY5DOgXpROxlhWvy06W92KE09ol91tM2cqZ6LmQTdP6UODhj5HAAcKOQgJDkoOhVpxjryzoGQA9YxNTBMmjEUcuBRiApA0YQ0MIYsWwyhaiMHrlrC8D93k+JVd34ZrMRd6u1AOgc13jlIu9+bwklP3Hj2WnW8zSRo49RHAPAYIQdCDmoqB1g1kyE0kMlBepNhYBBYOrL6xmaEHBhVZoPuUeYphquWHAsW+bxuuc8VIQcDgRwA4RMdC8+aCIjGyzMIB9p4+q0AcElNbQxFp3SvGWrA5SuqYUM6B+pTIytuni2UwPT0z29G/IQcKPYuIQfszd0zlxg5qCxffBtpgjDpyvYD7IQV8Cy8kIMBQQ7SFz9oRufCmYvZSaohSK+edhqQtQwILLea6SWXPHIa6jCuWBDK9aIU6PdOyIFPxlRxDrDCyxCqRnLgIlGMOQSy/5D6od6Q6MEGtd0JUGDZYggFimjct1MF5ACAutMEYUyyvWHIdmtb8atvs0Fh4OKdVxqKBu0P7TGjXMC5wR2jpsVPAx/XXmmg5+gjdO/ctnnPv952ySaNfZ8lSi+dOALqhr0LBHUlJwdaJ0chB6xr5oEbg0Zh87Rjuj7KQBBZS4klpICZacMztzV0fYl0CBtpn0LqCzlg1dG0UFWQg7QnL6QJgvPXNPuujYiwX1FxN84LDUUhB7zkSeOkgWtRsaDbO9pmXsgbjC9FBAivTn0eCA8WcuBboXmAFoXXMN45NUP93N4s5IAVuKgOH1HF31UqwuZASH0hB6wUqjJy4LhzT44gNM+56/8A4MT+mchlheCo1lDnIJt5lIJPdd4483F+tvIkaeO0SwGo4CmYgqKiXWN8FNh2ar1zEIIMCjnIJm5ADrDyiCUknYPAMpHFkAllsakS1RH28mI4riSHDBu+/jB1A88lhjaQ2vo7CHOWLEKgizPjCDkYaOQAATbv3rP7x3538yk7eds+T4pen7Yb9NK7vp0D9kLMtxCWHCgGVa4XpYCLR3sjpWHD011N/dyJv+i/8AJZVGAGcOeAlZNM/JWbAxN+TztMH3w3B0P9XAqF1I9956DgEBmUCiWJPyvRg7y6tL+DMHvxtwCxTciBakFXonMQJtCZzEOCH61tm3mlanY6vxMlLXh13eNA2Oy7Y2rXGCEHxpeRpHOQTcMydY+EHASUC+kcaK3jolzSLpyZWLjUDG302UE4Oe8Sw+KpALDc/BK3hjNRTSLI2agWr2sJ1CY5cKaQImhZ1zazQ4cAqGTp1TNawLadjzB5F2aNlPDIbl+zwX4FDKr0RynA8EnDhifv09Qvgt5QP2en1jsHCjKthEcpEJiqjB/d6VuSkyNzDn4LSW5IVJU+RZg1OgclqQGKNaCaXTp9yPm45IE5gjBpztLxNqWeUOl6/66RkEIOeBCHPg26gE4lej4Y9fjN3/yIN7haitZPb4ChPe8BwDDP1aKREtVBDjQWKGWO2QAAIABJREFUle/cNCcd+alBc/yiMNtah57iLMkb38gVDyVtO2UgiFEdPoQceBSaAlDKGv+oaoCG01HlQFT7ah85QNgKTWt2yRGEo771s5F1DcMMHn8zBUNDryiNTIuA6ZgFjFDLjJZw3l5poJfDya2LhKvWtp1zmnrb50vQq9Omgk3LhRwUHeF5IAo5KMBJyIExOwt9mMiGoto6Bxr7tbJzwyqnLKGAMBXsE6pKUK3kIOP3o9iy5pgcQXD+pXl2+1sAOFo1r/7fmYAWBVpDT8gBPxxpSQ9sbTql44ZZv9M05CtOr0wZBDjS6UbUF42nHVofBS07poRRc3P3HUbLWY8QaernR6aP8YcKbtgvM+b5bzQVIQdCDkqYA6ycZAnFhRw478z5MTavudhNEK5q/x0gfp5Xa5iACjngwZnDSQNXJnnq7oYDn7olui830kunfRES1t1FrF3bdSEHxhtDJPmSNRLq5Fjr5IB5TA3MbY3Ej+rU6HJbY3yvahQq/gX4Gbki5MCoDrhgMwI+r4QX6Kfsb+CnOm51EYSm2Yu/jwDfUe9oGs5ENYlY3JCogSuTHBBA9y7DXx66OpnsVcdVLUEdTfWw+z6bAHCo+RskA4qyFgTSOVBHLEgi7p0DIQeRvSGRCWVxNgo5qDpykA6SfRy2dKx2EYSJc+6cYZF1Z3DR0ajgQg549Tt0mzggJjb+suOGc2bxHFFL0QunToT6us6qJgesYsXMY18xpn4fpEXimvr5oQmdL1F0DvJANppKCTcGVvyZQtI5CCgKVdw9YuekQlAZf/ZA0b1COap9NaiO2LA7Tl7znosgTJh9V3MCKOAzwKZgaOgxT8ZpMWXw1BueN6M1TXyDeYYu9ooxbeuUjhvOju7+g41THwOAyTncDKbsGTgtO2EWtTJx+lNCyIF6c9CKmy9bMjhEBQzM8okhFGV9iYog5uww/A9sHoXUN/7+TBlygD21MHXE0WUPVFvkAOFlbF5zkBMpF0EYe3n7qMH16Dy65vFnCoaGnpADTUajxtYmPKSr7ZwXNQ17Z8DrZ+wDvanXhBxooBnVxpDjNeqYB3sX9rKCdA60NgZPPmoYw6ohB1WcA2xoY0wO0uELJNi/wUlrzi4iCM4/NF3VvhERiz/axK2JrnHZ0dIjJFEye9dul2dYy3Ut4cyIaRUDPZ3dmQA21/cMf+668zdzwxd46Hj59MvAopv6/de16jFfLQjCLGoNvH2H0XK2Cp9WCPueg7Abg0cMNCENXDMsWywhxd3qGnkfFUEUcpAHuk8MmaFV1l2lHY2XiXnaUg5QnGCR7aucL3Pa38CWjls9CULzVYt/AQgz+z3UmExkkwhkNwGrU8NXlxVHb+CRAyJ4o/OGmftolDNf0fRrlf+27sP0i5GMYBZyYByH0GTSGVnIgXJjUHJIzcQXclCQ8mFrQECA2KEJe8ioADlwTZs9Ue9yw3pixf40tnQ84k0Qrmw/Hyz877xjLq+uCTnQwClMkBm6WRGb8CddN5xzEc+xYCl65UufBLSeEXLAQDOqjSGywlCF5EC5GRfibHpo6LPDXzc+lZUR+KBDLmN8rxGkcxDvzkFkNYDTOUhDTdCwYxcc/9RWT4LQNKf900j4EItte649w4WQ9c3/CBu0Pk3HHJidgz6kUrY9dd2N567Uq2w+5XHj6d8Gouv1bYU9NYRl/Mzc8BVj6vvuQ5r6+QBHsjlESA60N/WAzVkLFiEH+usuf1/VAttnqKwNY1MFitp2fBTYdhiCgSJx6BykF/habFk7qS8JXDcpOv84+V9/OzrVWPcWOyGlc8CDKo0TI0nNGFJGq8C8hXTYmoWznuc5GCxFG6f+HQj21LMl5EAPr/yiHrC5so0KOWCtucBlqblmi8Q19YvCbqifsxNSP7+wGJsqETlgl1SG40IO+jLmP7FlzQJfguD80DK7/WUCOEBZh4QcKCHqX1+MJI2QHKTXDuFenTec83eek/5S9NKpnwAr8Tc9O0IO9PCKmhw4CaBx6vF0Ni+GRulbwhxg+cMQqmpywN4BvVONdb1ZlaVV2jlgQxM2BzTWkOdQjPG9QpBTM9Q3Joj4RWx5/N5AgtB05Z23ooWXBKaOkAPVysr8XoHOQd/A23Zu2WXDoku38BwNIAgvnvZ5SKDGuxRKuDGwCgNzUfmKMfVzi7AQO039fPXICoNGYRNy4IGAZgwj7xywEj1g0Wr6H5QDxqakc2BUeyOrAQaBS+Ge+KnH3w4kCC2z7ziDwFriOzkhB7y4V5AcAFGqo21WPSAaZIl7evS3qT8DG87VmHSBAZ5mHqMKKHwqW8zpRkUOiuo4c/ySnhqEHKiyJNKXrAk5UBMs7WURoMCyxRAKFNFYQyXpHFSCINLT2LL2yPxgFt2D4Pw4+dvtY1IJWK86WLCu7/FYhsaGwgi8r+N5ulpmtITz9jkDvZzvDN2gxLRhXceNsyYqC6VCgAgQNk51PgM+Qm3LwyHGNPrtKoSVtpQCDA7CtNHndFRkObJTg0ZhUy1wTSh8wdWyU+mNQcvZ6N51EVUepfcVzTkU5UFW39hMgaK2nUrngMYaGjDkwHltIn0fm9d+T0kQmr7+k3oc6XzOFwe5cieyJDZNAO1My7rv6MWIHGRqxC86b5jFPPUHHNjfnP4J2NnNuP9AyIGaQPlICDnIW6cqjIJQZtSHQBGGfv7wReKa+p62QtgQcsC7ETwQ4gqQg0jzKET+2HACTl7zZyVBcASar7rzLkD8sveBNoQT8lVG1Zldvc9wWCvhnI4bZl6nNhYsQa9O/Qyk4EGFVPHPWimiEFbaUgpI50CZCKYE2rOVwsC70CHTQ0PA+BpDaDscaVHXmEMgP2KuA18b0jlQLpPAUBngH3keGfjQl/wpHImfevwjFkGYcOUd/5ywrP9NC0vngJc3aZyMA8TT5ZADAOhJwRlP3jRrGc9xfyl6+UuXAVqZ1yt7/vnMlw1DrZODEDGXzkE2o8pADpRhYidsdJcVXD5pjO+1DuWygrrUDejOgTLBg/FBuA+b13y+UMjzHgRHqGXOb8cS1T0t5ECdd/0kKswiZ+gyyUHan16Y2HHzrHVM7/23/1emLgWAaUIO/PYyRtw8C3rfPxrq59Q1WqIqgmfkioeSlh0hB+EOFXLPAQu/wJx0fmQmrU4NVhXfqA7eoQ+mjqP2TGzp+BWbIIxJtjcM2QabgGBIRokJoKoIFf6uDJwKZb/qm2dYy3Ut4TxoDPRyrjN0NRMToe6gtW1nvWyCXr4ObZz6JhB8vNiOdA6M14R0DvzYljvNlMtCKcAoXUwbviVQQ9+1sKIiiIbjF9YeYzMFitp2ykAQlXsM02nNGhxYe6uKHBBAnXUoTnj8BTZBcASbrmr/GYLzeBsTQCEHBvsxA1uDxEx19+y/7tYLGDcX+rtML3xhONQ1OB9oKvgLSw4UhFMJiVKg319fUQ0bnu5q6hftB4b6OTsDuHPAOo8w8VNuDswla7AGfS1HRhCZGKgcMTYTI3JQkhrASvSAAh1SP23ZiSG+CM1rDkUs3uh9LzFkCMLikxDs+5hLyEPMlB2aZqyjl6erZUZLODPXtIqBXg4phq5hYcKdqU+sXfS118xjB0AvTTsULPs5tw0hB8Yxj2xjEHLAymshBwEwZcFhlCBvI0IOWDkYeLYyBj+CvSdv70rR5fipjhu85hNIEMbN/vU+DVRvuMkIOQhOIEZyGJIDZ9wegH2ebJv1hlESZ5Vo49RjgCD92c88RlRskjEVpQ0212IO5ivG1PedsqZ+kR1D/RyAYb+vYEqgA3JAe0qmtYGdJAoOp+FwiDVYtFAiI4ga/nsWACEHWiQ/qhxw2QkRw9AH07x1lHHjCJy01vO9R4EEwek9NF95x7OAeKjeRmNaAExBc/RMC5/BmKEDxBgzZFKm6hv+f3vnAmZXVeX5/zr1SMI7yBvkpYiCEJJUqgoQTSCA4hB0FFRap8dxGnucBg0g2jo9E/uhPTrT6rTjNGqrjYAYtH22tKgYHEhMUpUICiHyFgTkESEQklTVPbu/c1917r3nsfbjnHvuuau+r79Ws/faa//X2nv/9jrn3nv45k++4zG9uLXVCh5YsQJE3xU4SAGkNJFdHQwQOEiTuvrvicuLsfYSw63RP+ysqxwo2qcVUvVuj5jp2aCxBlPjrxFDy304+m6lMX6kfBb9wwukZuZx7NjzSFq2ZiZqbaUBAhZf9Y0/JYX/x1qYaaszNXD8UWZbChxEqeakgvDABf8VhM/F7rhaeZrDxpC4WWk5m8FH2TTHj7p+Wh0OpgCdsDFrT8kmB5iDudpjXB0MLTnJnEPcNmgV/5Ajxm5EdNS2FdOBZYfVKAEQ286KtOPGVQ602GHOIcq3aleL/p1wEHx74kpaEv14IWieCgijl9/wCn+A2p5Dx2ZwvOSuFm7LCAIHcYI7AYQHL/gEoD4cOYZWntocDBqLInYYLWcFDqLgROMiGJ2TOeSAqz3G1cFQRDjQWE6tcRQ4MDqciwwHQYB97xU03vnphUbsUwHhhAtXD+9xlP8UiPZJBi7TDUBz8246IXCQFA8ngPDAiq+B8E7OeWFEhqzQsxql3BrSrgqhf+8Yjjl+lsRvdXMM+W80lQwPBvZhxXBc4CAhyQucA4zQsg/mxAsCa6Cahq4AsehwQLgfIxuPi/r0AhsQgoaLrvzGKo/Q8iMOqXTZaOBq4UrlQOuUmwY5eElxxY+hsLxDerYnptDISp5ZL6RykH44aOyPicJq28khB1ztMa4OBqkctOVjTIDYucRoKHCgvwco/49obPL6pO08tYIQdE5+zGC6ATCCHum5VA44lRwngPDA+RMgWtxStHEBB6ybIzM/BA70NwZWDKVywL65tuvZlI6Zw3HxsKoctS0yI1cyzAG2P4yGAgcme4DC9NAhdPraJ60BofqtijtU8JO/9W9VZNzwXFG9VA5Y23mt0azoTgDhwRX3AXiZPiCkLOrUNZ/aoH26vBtL7EYcu8NraF9vWnWd6X+sddXln+zN8GBgy8PQ0OUe02GLMX5U/AQOQqpI5UB/A3G8j8StN1LfpCUTF6b5x6ogBEYWf/CG/06gj80alMpBsriMDSayCaNf5MCt/ZwAwgPnPwmiA9vYIyWnBA7SFl1q3ri6OZqmUjvgaNsx3RsYF4+weEWrHhUGDkKngnbsYk4UbTvdhINgDhpfJuZqH26xoy1Y67aQ9R7g+SfTyOSv0vYqPiB8aPWR5Kv6V/eabgCmogX9Qn21zGg1Dt1MDfrpXLVdJWXM6e0GEFY8C8K+/AuxwEHaghM4SFOIue4EDhKErIvDlLLtZOq0q22nD+Gghau0BcsXDoBn4PmH0sjkdNpqZAMCVilv5IUbfg+iA2KNJupiKprAQeqhEtHACSA8uGLH7I91paWSwEGaQqlxzPrWkOpgRAy1lq3pxUEqBzXO1xI7JpoCB6lpnphuhjFodjPs3/TJsn/jwphkRvkX0djkjRyd+IAAYOSK694Fb+CaSMMCB7xnzxlXDhr5MU0OPsXwwIrdAIbTE6nf4aDl+pAuV0eLbr9zEOO/1l4lcGAQ+NkuXYeDiBzQin/CGmDbYTRMbNKFxwqFqhzUnUk+i314an8amYz4Eb7ODNYChJM+fN38OZWBbVH7W/ziYAQ9ljhCfbXMaDWujV7tYtCv6Tujb05wELjkBBDuXzEFwlDyxidwYJ031oeD6TpJuEox0jl0ulkuf+Zgsc2Y/WOnq9m/w45hf9e3RqstrG0O2lOK6cC2w2gocJDCoMFFIw1T/f9Fo5MfTGvV+HctQAg6jVz19Zuh6GzeuZjqbYyfQT/TTc9gzJLBQX6AIHDAWJEJa9Fh5cD4cIiIodYSSmjMssNqVLwvwmpxmzmHqEywhsNQ4I3dyAgO2DnJcFzgwAEcAPD8A2lk8unMAOGUD3/96MEKPTh7644bihF0qRxw4xRqxyP17CsIAgd2cBAwsEZJNHat1P/BaLkJHBgswLawGwlfG1bggFe1FThwAwfAP9Poxrfo5Lx2BWHpqlWDz79w/A4CJTybNl00UjlIDh4PDrKvIPQYHHTcZEzzM7yfWdio+iNwwNqoYmXW1L+juWb/hrNSOUi/rPRN5YA90ehUdwWI3FQenDmIFm1+irXu6o20ASHoN/LBb7wFSn0zZtY647clW2im3EmnlzIS3NQapM0Oo29kE0a/tNti+N9jzGVXQcgJDhLXnqaGzjb1yFNCP98FDnialRUOnFQP6uJoLoVZ4ds6attJ6MCyxWhU6MpBj8EB6BYa3XAWb+HNtjIChFNXrp43PeC/2DkYI+ixh5/AQXzwInRNkTobQBA4kMcKORwMmcGh7abuChBN98m28Y3NCBzoHpSd91Bj8d09WtJxYWh6Pi385bO68zYChGCQxVfc8BkivD+WSNmeBLMUOHAJB4Et94AgcCBw0G040DzgO9zV2VHjCoYWNqRyUIJ3DjRzsH1jz/uxQo1sfkKjE7MfLGCfzYA5IKz6/h70wo4dtbFMF43AQXKs9CsHDXtuAaHX4cAiR5tTN83xekTksUL6tpQqcWqDhPuKRt+OTV0qB6n7PEteRqNSP1aw2IeaOVkXiCFls8uOHXvTsrtfSF+AnS2MASEwNXLF138IwhtMBq5BhVQOXFcOGgt5mjz7n3uufg+CSv4ehNRETW2QsKkbbsyubo4CBw260UrTzsbMHEhsxrQRuQdr9BU4iIl1DtUjgYOUo9QADkh9jpZMXGp2RltUEIIBT77ymj2HMWRAJgIHWVUOGtCVCyCk7rupDQQOUleuKUQnwJVGWFKrg6m2UhukXk5TfQhrGDkc0weBg4LCQdt5kbRmMom/5c2/6pNhDtpUDoJBPX8O5zcX4iS1qiBUqwhXXn8rQK9N3edaJmq66RmIbB0cxpgukzIqkRgutO+ybgDh/PhvUkz1KbWBwEHqojFdJwIHjORiMrpGHkdZtH7mbHBrbPGjzX/t6XS7cqABBy6rRy3T1hatLf0s+lctGeYAqbfSkolvpW4zCQ2sAaFWRRjcDpCX7ohUDpi7ksH+1pqEmQJCar6nNmDMT8NGJhuD5vgdt88Sf88B60LE1C+xGdNGrD8a/cPxa3Yz7N/kM8v+pgdD+60zgRe19yMtW4z5p8afYSPWJ42+kfFnJXq8hNXhDX1oj6G+mW00uvEl6WdycgtrQAjMj1x+/U3w6PXpyWZ6I9JXpxS/rcCedmfDzAAh1afUBgIHqavWdJ0k7N4aYalZSeiQaiu1QeoQWhtr5HBMHzrATusETDgcDMe3PxjqFtrG13bHJv7MgzFTOGD6EBt/w/4t6aMteps39f76ZioAjqHRjY+kbjUpDZwAwuJLrt6D9t77WRDFvNAWzNB009NXp9/hIIh5JoDACgWrUYG/W5/pf+zC8rXOtk4zputE4IBBnul3mDQ44uy48lghXSWBgxSNjOEgOGu/QqMT/yk9COktnABCMMyiK6//ggf6k+gNz3TTM9isq10M+rWTe5J2Lm8sjt45aHfXOSCwJGU1Kh4cNFOG6X9sbtj++JLpOhE4EDhwlQNSObA6P6zPn9D5ZbYdPYeHjn4JXXRjUEWw/nMGCEtX/WzwhRee+AOAvVoXq+mmZ6COdXAYY/YAHDivIDBkYS+qWFusQRLOAc3+4aVjnTf1RW11czRdJ64OhhSwZsnLaJR6c2TuaS7XYdMWw//Ei4Nlf+Mqaw45wJoao1Fq/Bk2EqbL3oc61n+iUV5SutpHzO+4FSgap7ENEzyH01s5A4RgqEWXX/cfPc/7Sm3YQC3TTU8jSVriatCvqRGjr8tNKaPKQWM6zioIQPL3IDRjnZ5s8YUdhvaxC9p8Nc26rjl+x1T7vXLAjEHq4cDIodihDGMocBASPUZDlrSMRqnxZ9gQOIhfJKS+TEsm3sNcRaxmTgEhGHHxldc/RMBRAgeJV43Of2SvDV7D/ACB54/AQVw+mEJ0wk7JDMmsRwkdWLYYjVIPB9Z+FXNBZIwfZV7gwBEcMAAxNf4aMXR1UWuxozF+ey5Vu1r0D1+yjM2oR7Bk4mgi2H58qmV2zgFh5KrVx8Of/hUaN0+tCWs1rk3EOjiMMV0lZNxtm+FCaLKsndQJINyX8D0IcXNJ3IgjVxZrPtHDsYWLATKL/g2HrB4rhDYWI1ciOmnb6SE4iNyHtSfctpQM+zf5zLK/cZU1B0BkTy2locBByh5XF4itd8c++iKITqIlGx/gb6a8ls4BIRh25IrrrgHhXXpQZaCOwEFslLMHBGa8Ypsx+8fug5r9w0pZ5039pBI4SN9lUg+HdBPNFh22DHOg2c2wv8BBKGh9DAfVbcAyh+y/60IB/ntpdNMXNVYSu2kmgFB9YXH7Y4+CcDDPEwORrTd5xpiRTRj9Iidtc9vTHzNbQGD6I3CQkP7Wt4ZW28yQzHZK6MCyxWpUvE+sFAYOClw9YoY2tayeCofsgdw9WmoZUmP8qJXcfTgASH2dlkxezDtn9VtlAgiBG0tWXv865amfABhMdssgSAIHqZHODhCY8RI4EDgoWg4IHKTf/JnLOxUOQvwTvRA0HpW7vKgVJgdcXBDUHVgyucj1ewfheGUGCMEgi1Zee43n0bvid0p2NrZdfAz6xdcpO91zmZAZf1ohWluFaRqw/zXHjncQmLoX7WBoblZM/2MT1vbTCra3xphdV2taUjlIpeukBta3RtsciIifVvwTTm62HUbDxCb9Dgf1GDBkjNvfQXgcU1On0Ol3PmmVzymdMwUErFrljTx/3G8AvIx5CjOKDcaq8t40LQEcBO+xTg+4BgSm7oWFg9QrTcpSEThg3RoTZWbmUCMSHc01+3fYMezftGPZv2rHxc0xvRCgfSljT43RUOCAsZeYHutVcbdj0HstLdpwh6kVbr9sASF4YfGyG16Nwcp6EPaYdYqRZO0zqHYx6Ne0w+hbEjgIpuwWEBjaFfFgaPGJOYfIleMQDozT2PbmKJUD7qYYnQI2+dNGKsam2jpq24npwLbDaChwkDUc7ALhbbRk4ntW+czsnDkgBH4svvy6ywj4DAhkdMgLHDDCGbzMOtvMHSAoxhclJbEbY1MJz87VrVHggHfNZIWH1ajALyQaU1lNw64/VojwnxkS1qWMZYvRSOAgQzio5sA04F9Co5u+yjgQnDTJBRCqkHDFtd8g4CJtrwUOGJK1woG7CsIbp+J/gItz/jA2lULDQbAmNZ6XxlUf2i6QjIAmi6sla79XDgQO7H6Zk6mfwEHWcFAB4UpaMvEZvf3DrnVugIALLxxYfOQFkwQsYLsscMCQqhMOcgWE2I1B6xSr39QSaYGhRb1Jc2gDH1pcEDhgie4qB1xVj1rsWOSAVA54j3UFDrKHA6gP0ejk/2atR4eN8gMEAAsvXX2gNzz1awIOSp2DwEGqRNWbQcwZ5uYRQ0oFIXFj0NyYnW3qVtf1Wc2lcsDIvwI+WnKVR9WLs2YOdyhW729spq2jtp0cqkeFhgNm9SMu063jXx9fO24tt5QZEK6iJROf5i1It61yBYTA9ZGV143CU7cA2DN2KgIHjCjHw0Eg34yTTzGYAoLminC1qUvloL2E0plHrNCwGpX3nQOBgxJUDkoBB1NQeB+NTfwj40DIpEnugBDMYtHKa9/sebgBwHA0dDM3qEhJGH0jmzD6ccdjm2I3bBs5GQ6CxpkDQiZlZVM9wvuZhY3qniKPFVg7TSbxt93UXVWPLHOoqB9lZMvLmL9UDlKWSfDJJ9ZKimmkdkD576KxTd+2sWLbtyuAUIWEy6/9E4/o84Ca/aZFqRww4pkOB5kDQiaHg8VqkspBQSoH7BOo5m9HyIuQAxY+hCdlbKato7adhA4sW4xGpYYDzRxOujQypIze8NU2+P45NL5pknEgZNqka4AQzGrx5V+7HIRPEciTX2XkxJkHB5kCQiZwYLEoBQ4EDpzlgPGO3hoDYzMCB5xdsKNNi2zG4jv4ZeDQPmbqhvLvw9zp02lBtt+QyNW5q4DQgAQCPgXA4zrd2Y4RjcgmjH5JhBj+N7YpdsO2kflwkBkgCBzEpGhIGKPwRnTSspPSONVWaoOYG7/RApDKAWdPYYZk1lS3KweBJ8zHcy734vLAgQL538WDk2+li1AxPwvd9uw6INQg4ZrLCPR3AAb0p8dYSS4Tsku/rRC39uJm7/wdBIEDgYPYxclYg42+LteiVA7yqx6lhpgJB5HFwlTj0ZlXHjiYAip/SqObvqJ//mXboxCAEExx5ANfewc8fE0PEhiJ5XJD6hE4cF5BEDgQOBA4SM4BxlbEOOUMXmzrocqBwEFUCjwJ31tM4+sfzfaoN7NeGEAI3F+y8prXKdBPQZxKAmNFFgIOGH4mbb4xYJ5sVWFmYOqIOz79X35nlhb1ivJ9b5wCKOarljXn1dFcs3/HDdSwf9OOxo0nrSRs5EpEJ207NocDc7DEZkwbkQdD7P+YnrJSOcivcpAaJo115Go/LkPlgIKasPo8RiYuI7L7vEP6gjFvUShACKYxeuXqYyr+7nso6iOQzXkyNiZXyVgd03QzZ/iZARzUKggOAOHeuO9B0JxX0eCgujbNF01LZyM7pvkU9lngwCaC8iVIzMRNbCZwEHc8JOYmqR3YXXkFvWbzY1Y5nEPnwgFCMOeTr7xmzzkV2qQIr2jVwCapmX07RDfdzE3HqwOJYeWg4X52gKA5L1dw0OQ0zfGj4mn1DWmh8Y1cMc0ngYNZqDMSflZAq/iHLgzGbmSYAyyfWI1SvgiLacNl9agMlQPgEizZ+KUiVw3CO00hASFw8MILVw88eMTuT4GwsuYwMyH7vHKQLSAwY9BwQuCgDU8yPBjYS4QRw8QmjP6x8Wc72Xk3ag6rMX7UDcsVHBhPJcMcYEnDaiRwkHg7r2vIlLJ+fn0Lc6b+mBbcuSOHi7+zIQoLCHVRaeH7rz9jwPPXgFS6rwIHzcRwX0HQWg0ZfJRNc3ypHERsEgxAOEelAAAgAElEQVQNBQ4SNtcCV48YoWVdslLjzxoo4U6n0T8SNA36t9ix6B++qHLNEDaA/DfSyOTTzk7tHA2lH7o5OhM31KkrV+8/jV03gTAa647AQYs0bgGBuxrqLpSuchC6LmpKEbtTattJ6MCyxWiUejgwNwOXa1EqByHRYwLECK3AgXHJp1N/lt70C0C9mUY3PsFcNYVs1hOAECgXPHJ44PDdrydP/SDqctipLiuKvFsWyxSrUUwS6H0J0qyR+DHdAQJiPsUQP5XWf7HQpdrVon+D+F2VlY1cieikbUfgwGr3dBV/43TMMAfYuZTSMBUO2QPFLFmN/r1bOVAg9WWQ+gsamXzcKmcL0rlnAKGh16krv7T/bhr+vAe8LVzxcXMomS5kg+RvOuweDgLTXQEEqRy0LWvTfAqb6SE4iDxADdeGVA4cVQ4YVCNwkHIc1wWK12kbfLwf/uAP6bR12wpytjtxo+cAoT5rWnjpta/yBtT3idSxAgeduZA7IAgc9CYcJJ4fmoe7qxwoDByExNGUopYMGQIi258+rhxUQ8AWKrkk2pnbuwH6HBR9AaNH3U90Y2G+HtkJGTQOWpfGcrelFI2s/KfTgIFvgdTB5uVo04Vsk3zZVA4aMcgVEFwdDM091UbXupHMNgZulrfNQXtKOVQOBA5sb44J/U33FEb1iJ1LNnAQ+NGF7zloyUn2RKPj4H4PeAbA5+H5N2Jq+D46bd1O7m7Qq+16tYLQqveqVd7CZ449wxvA1UTqeL1gmC5km+TNFg6C+ecGCAIHEelmmlMNUwIHemu4vXhjszbbYmBkyjb+CeTG9kfgwCqHahWg56DwHSj6JubiLpy84WGqfgNi//yVAxBC8Rpdec2I7/sfBtG/ByFlfqYLmb1Kow8Pyy9BSk1PBcxMTx1xxz9YftVy9ZsUE15SdA4HiVfa1GlXK0jubw2McVNufVrpInCgKXhrc+v4h3JQK24JOaBtJ6YD2w6jYWITjTMw0g5j/KggN7sZ9m+ynWb/4NBXuBek1qFCt2FYbcFu77cYW/9YvwFBe1hKBwiNCY5deu0RFa/yRkW4ggjHdeZjeeGgWkHIGhDKDAfGnGKaU0WqHKhvwcf1Vod0NztXev1RcIL/PTE1QycNu0WnWmUIHh0EhX0ADEGpCjyagq+eB9EfQNiOCrZjkJ7DzqmnMX/303Ti3VPdTNuijl1aQAgJTiOXXXOi71WWE7x3E+Fk85eHNMm0JerZP1YIvxOVKSAIHERXhtr/V610KUrlgD5OJ/70o0XdsMQvUUAUyE+BfgCEFjWXvO8rh1SGvBGP1FlEtMyHOokUvHTJtXb7NnP5wkEAQDPT09k8YigcHASPCjVKopGBDk3KKMxlqBw0hBFASN8LpIUo0B8K9B0gtId18SVX7+vvOe84qvjHEuGVRPRyBXU0gENJYT6APRSUR4BhESx4Lm7yiSfNk6qluYIPOm7z595j9WthKuodhLZxjJeJs+eNAgesGMSmU/s/CCCw9JRGokAfKND3gNAHMTaeYgcgCBx0VoZK8VghPAkBBOMFIx1FgZIpIIBQsoC6nE4LIAgc9AEcBFMUQHC5hsSWKNDLCggg9HL0Mva9CQgCB30CBwIIGS8pMS8K9JQCAgg9Fa58na0CQvAxoZY/zXcjGn3lnYO6Et3+tELgRlIMpYKQ7yqT0USB4ioggFDc2HTdM/Wb9i9KEjjoCIqWJEWHA6kgdH3RiQOiQIEUEEAoUDCK5korIGidhLNTkcpBj1QOGiGTCkLR1qH4Iwp0SwEBhG4p3wPjzgKCwEFmlYO0in91YKb+ic2YNuQlxR5YmeKiKJCPAgII+ejck6PUAEG1vYPAnEqZKwcaZ3bq4Z56bqc2qAXECRzIIwZmdkszUaAvFBBA6Iswm01S/ea85B9rijMrcBBSxua9g5zhoPqFXvRxOkm+atlsxUgvUaBcCggglCueTmdjBAiu4CD4VVXm+Rg96VBnIzsxnbRs9RgcVCsRAghOF5EYEwV6WAEBhB4OXtaumwOC1ikaMQ3bn20WONCiq3C4BBCyXlZiXxToGQUEEHomVPk7qg0I1YNG4CBRA5Y8jEau3jlotyOAkP9CkxFFgYIqIIBQ0MAUwS0tQBA4qIfM5rECE7CygoPq8OrjdNLP5Oeei7AAxQdRoMsKCCB0OQBFHp4NCAIH5YCDoPqjIIBQ5EUpvokCOSoggJCj2L02FAsQCgEHoZs3ozrfGYduv5BYgMrB7KOhbSA8zc7VpnSWP7td7W4UvE44MzbT1lHbjos8Yisf0VDD4aim9609gS4y/Vl7G7+lb1EVEEAoamQK4FcqIAgc9F7lIPIc1jhYwnnZ7GbYv2FLWfYPg4WRqYhO2nZs4YAxYGITDUCLtKOARS8dJLqxUoCtR1woiAICCAUJRBHdSAQEgYP84CDxcs04WCIP9ebpbJZ6hYGDDKpHmpLGVj7YdhgNs4aDQMbtc4do2ZoZs4SQXmVUQAChjFF1NKdYQCgFHEScuox9ulXahA4sW6xGCZV3Zv9YFtDs32HHsL+zyoHAAYLvC+H+xVUOmvGYHqaRyWmuOWlXfgUEEMofY+MZRgKCwIFUDqoKCByUpnIggGC8R5a9owBC2SNsMb8OQHBSVrb9EiTbW2PM4aZ13knlwCKtgo9SWnWvda7bMDbV1lHbTgneOWiPwqLpYSKpIDhIztKYEEAoTSjdT6QFEIoGB8aX2IiNXetwEDiwyjSBA171JY93DtoDOXf7HDrx7imr+ErnUikggFCqcLqdTBMQBA7ksUIztbRoqjUhywwHbGBl6NcNOAj8//3Tc+m8+3a73UXEWi8rIIDQy9HL2PcqIAD1n3tmbGxJ/iiNl6ki7YTGN3JFKgdG6dIim5Hw9ScCFn3b4cTYVEaPFcoAB8Ec9pk/l467SQDBaKGUs5MAQjnj6mRWamvj556Nd+T64SBwwApIrMya+nc01+zfcFbgIBS2HB4tdaty0Jjl9rnzaNmaXaxclUZ9oYAAQl+E2WySausbpkCNCoKZDUjlgCecwEGCTgV9IbEslYOG8vvPnUfHCCDwFmx/tBJA6I84G83SGhAEDni6lxUOqgeoYfVCHivUFdCovkVKraH/btqDTlu3k5e00qofFBBA6IcoG87RChAEDniqFw0OWm7FGodL1GwFDtJzoNuPFcIeCiCkx6vPWggg9FnAdaZrDAgCBzyZEw8HjcPZ1TsHAgehuPXBOwftWaqm96SRyRd5ySut+kEBAYR+iLLhHI0AQeCAp7bAQYJO8s4BL4nivlJBAy7DAwkgsGXvl4YCCP0SaYN5agNCmeGg5XYdJyZzYxY4EDiIVSBIDps8YvbtqB4AeGafvejcm3cYbBXSpaQKCCCUNLAupqUFCAIHPMkzgwMWwUT72PTJ8HBpWJV3DtJzIDX+GjFw9WipYWdon71ogQBCehD7p4UAQv/EWnumbEAQOOBpm3o48MxEXzA1DpaWsnLzdGcOHtNM4CBdv9T4a8TQNRwE3j8/d29atuaF9IlIi35RQAChXyJtME8WIAgc8JRNPRx4ZgQOonRqE1fjnK1Zy+GFxMRhNB4rxNrRnnTbtBUwb97edKIAAnMl9kUzAYS+CLPZJNMBwWc/Lk2pbRvaidgUtfdJm8OBOZjAQUIC9sELib0AB4GPuwb3odfc/rzZbiG9yqiAAEIZo+poTsmAUEA4SLkMdsoicGCVKkV7rJBr/DUGi02zglQOGkmw1+A+9EoBBKs1UbLOAgglC6jL6cQDgrL8hrzQjsm8hLfOK6aTli0bOGAeDlI5yK9ywAyJuzxiJluvwEEgzAz2pfH1213uIWKrtxUQQOjt+GXqfTQgCBywnocIHKTDgdGhHtOJeV7POmUDmczBegkOqsLM7Ecjk89luqmI8Z5SQAChp8KVr7OdgCBwIHDAPBxjUzWD6pG2SwIH0eERQMh3hy3+aAIIxY9R1zxsBQRbOAjd/LQ39ISrppYteaxglUyu3jno2coB0/GeqxzUs+L53fNp2S+ftcoR6VwqBQQQShVOt5OZBQSBg1wrB5HnkBYJRVTSDfs3LAkc8L7hsFfhIIjzwLz5tHCNAILbbbSnrQkg9HT4snW+BghqqLs/2WtTDm6ebvFCsc5NRiNX7xwIHETEKkJcRkhaDdnmEWPAXoaDQKydQ/vTGbf9IdtdRaz3kgICCL0UrZx9VVtfPwWoIbth67smY3+NHsf2cMjhsUJi5Vlz4h3NNft3MJFhf2eVg5A4Rq7Yxj8hOGx/GA0Tm/j8JRRphzF++wgtXZj9h4f2p5MFEPjBKn9LAYTyx9h4hmrruVMALABB4EBLfIGDNrkEDliPtqKSrCkdEw4CG1MvvIROu2ubVs5K41IrIIBQ6vDaTU7dc+4UyBQQBA601Bc4SH+0oHHW1Yx187FCMH4XKgct09YUbMp7CZ22TgBBa+GWu7EAQrnjazU7c0AQONASXuBA4KBDAc3DvflIqOM/8FOxog6gsQ3P8DtIy7IrIIBQ9ghbzM8MEEIbm9EeZ1tWlncOLEJu+Q2ZbYeTUfwjbv7adhzmAGEKCi8AaidAwX/24YHgVytr86CwFwhzWzXvscpBw3kBBKulU8bOAghljKqjOekDgsCBlvTOKwcJZXWOY9YfZQyNr32ox9x8te3YwoHvA/QMoNYAA5+lhf//9jTp1MbTj8eAeh9AbwX8gwAMpvWp/rurFxJbbGkLFnJ13oE0suZplu/SqC8UEEDoizCbTVIPEAQOtFQWOIiQq6vVo92A+jkq+M80cvtvtWIZaqwUPGw+9QuAejtAe8baKRwcBJ7OHEgjkwIIpsEvYT8BhBIG1dWU+IAgcKClucBBkeCgAo/+BZh3MS24eYdWHFMaq82nfhIKH+j4JFAmcOCgerRz+iB67eanXGogtnpbAQGE3o5fpt7zAEHgQCsIRYOD6rliU5YOHUzGZrpWOfgDhiujdOK6+7RiqNFYrYKHFafeA+C4areiwkHg29Sug+n0O5/UmJ40LbkCAgglD7DN9NIBQeBAS19XcNBy0BifyjXXiwYH2tMxfOfAw404+ba3EcV9FlIrsqmN1ebxj8Cnv+lsqD3hetzClgxttMdfACE1jv3WQACh3yKuMd9kQOh3OIi9DkYrLHAQoUubKNrnnCEcoPJnWLju82T8LUQaiyjUVP1yZBQzQ2tBGIg45flGW6atLdrsONWuof7DgwfTgrVSQeBHovQtBRBKH2LzCcYDgsCB1tkicFAcOFC4GAtvuyGvykH7xNXka18FTN9h/BXmWcFB4GiFDqHx9b833zGkZ9kUEEAoW0QdzicaEAQOBA7qOWB8ee1S5YD8y7Bg7ee6BQeNpakmR88A0Roo8rSWa5ZwUHvccCiNbnxCyydpXGoFBBBKHV67yXUCQoHhgFXxZ55oic2YNmL90egfDl+zm2H/5ulk2b9RkjY20y04wGosuO0dFHzFUQH+1KbxD0Hhb9muZA0HAgjsUPRTQwGEfoq25lxbAUHgwK5ywCKY6AgJHNR1MXznQKkX4e8KPuP/ouYSyKy5UiBsGvspQMtSB8kDDgQQUsPQjw0EEPox6sw5zwKCwIHAQY8+VghyfXB6AZ20/k5m2ufWTG0+ZT/4cx8GsE/soHnBQeAAVQ6jkcnHcxNABiq8AgIIhQ9R9xysAYKa/blno7JyRCdtO4Y3x6p0zMHksUJCovUwHJD/IyxY+4Zuv3cQJ66aHP8fAFZF/nuecBA4sHv6cHrN5se6t+PIyEVTQAChaBEpkD/qnnNmf+6Zec62ui9wwAaU9rjLYwW7xwoNPZU6nBbdXthDT911wjB27/MAFA5vSYG84SAYfGD6cFokgFCgLbjrrgggdD0ExXWgCQgCB+lBitTISLgQUxj2nz0c0/1ObOG4cqBR0Jl1K0YDljT+Bpyydryo1YNmmCbHgy9Q+khzzt2Ag2Dw6d1H0Gl3/M4yaaR7iRQQQChRMF1PpQoIqP6sreZftysHzJNIHiskxLXb750kxJAFBwoYrJxAJ/1ii2by5t5crR99CQa94Nn/UOsTMdZEo/2tdtXsL4CQe+yLPqAAQtEj1EX/zABB4EB7Y25eJTv+g1n0XX19ssEZU3M4wxxgnXn1RnvtM5eOu2m3mYj59lKbxn8GH0tnR2VN1B0cBJYq9FIaX/9ovjOX0YqsgABCkaPTRd/Ug0vnYvfwTj0XMjwY2IcVY2OVykGJKweNRFG30sK1oQNXL5Pzbq0mxv4coI/HAhbXIZPKQcO2AAJX5b5pJ4DQN6HWm6i675yDMAONr13tMziIBBYGnESFoWgvJLJhrH0yGeYAW9p6Q98/nxav+4Fe1nevtdqw5BR4A5uNq0/NmLGF6pysUkfS6MZHuqeCjFw0BQQQihaRgvij7jvnpZjBb3nuZHgwsA8rxsboqnIgcBCRFhnmACO0HTfvediHXnn787z87X4rpVZ5mLwp8HcPY29sHy0JIBhLX9aOAghljazlvNTdZx4Fb/AhnhnbwyHhBGAdDqxGCZczZv+GGB3NNft32DHs37Rj2b9qp27DyJRt/BMokO1PW8Nnh+bRsjW7ePlbjFZqcuwuKJxg5I0tHATxJ/8oGplkXgqMvJROPaaAAEKPBSwvd9W9bzgClQqj3Gh7OAgcWMXU+mAoIRwEU6rsGqaRyWkrbXPurCaCr17GmdrDWudAfQ0KIGhLX/YOAghlj7Dh/NTWpQdADT+V3F3gwEjewrxzUFI4CKZ1ymGDRDdWjOLTpU5qYuzbAN6kNbw1HNRzIMjJ6Zmj6fTNwVc/y58oUFVAAEESIVKB9E8xCBwYpU5p4CAEFw0h2I8DUjqw7SQ0vPewQbqo1wBhdDVAF7LzyiUcBIMOzhxNiwQQ2Pr3QUMBhD4IsukU1ZZztoEwv7O/wIGRpgIHIdliDncXcNCzFYTRbwPEqyC4hoNAs8rAMXTqL5jvHRmtAOnUYwoIIPRYwPJ0V209Zz0URlvHFDgwikGLbOxTMILNLPo2rdm8kJhh5SDCdLTWDA168R2EybGfQjHeQcgCDgQQjJZ12TsJIJQ9whbzU/ec/Q8AvXfWhMCBkZxlhgP2oZ7yWIFthwEHQZPnevBTDBNjdwN4VWKOZQUHVf3pWBrb8KBRjkunUioggFDKsLqZlNpyziUgXF2zJnBgpKrAQUi2HD6x0hhiamZfGl+/3ShmXeikVl84gJf9djtUwvcgZAkHAghdiHrxhxRAKH6Muuah2nruGVDq5wIHjFtrVJRcwUF18zb0oemX48cK7Bt/zpWDxnCk3kQL1363a4tHc2C1bnwRhtRkbDfr+NcDlpRG0/7L6fTJ+zVdl+YlVkAAocTBtZ2auufswwB0/vyr1lmVw60x8bDScjaChTT7R56Hhjaatiz7W30JUo9Uj9olInUbLVx7hu0ayKu/2jj6URD9deR4ecBBMPCAt4AWr78zrznLOMVXQACh+DHqmodKgbD1nN8D6sD2iyjPqW7DgeY1t8Ndi4O5MJ9Y6LPKQTgxe+g9BLVx9FYQvbZjXVXDZ5GHVYOKZ4LUGC2Z2MBb29KqHxQQQOiHKFvMUW05++9B+LPGPsM3JXDA25UTFLW+OfYxHFTPxcoJtPgXW/g5252W6meLD8Deg48H30TQ4oErOOAyhppZQmObJ7qjgoxaRAUEEIoYlQL5pO45axng3aJ3iRE4EDjIIQcSL9Z+EILNWLRuMZFe9ua9/NTk+P+EUld1FQ6CwX3vRBpfH3ySQv5EgaoCAgiSCIkKqK3nHwB/15P8XEkph6ZWS1Mb1PxNbMa0EWtHo39YPXmsUFej23BQPe1qvuzCEXTaus73aAqy7tXE4iGowUdAOLjpUt6Vg8bAvncIja/X+In3gogobmSmgABCZtKWx7C6e/mPQbQ8fUYCB1I5KBAc1BL251i4bmlRqwhqcvyvodRHuw4HwDR+uHEurWqQVfpqlxblV0AAofwxtp6h+s1Zy1HxfpxsSOBA4KBwcFBL2UGcTCev+5X1QnBsQE0s3hcYfAyof/dBtyoHtXltptGNixxPUcz1uAICCD0ewDzcV/cv3xfT3jYo5cWPZ3M4MEv68lghIdx98EJiMPu09w4iFVLTGHhxPi24c0ce64UzRvUTQpOjtwJU+yhmd+Eg8OD/0ujG2svI8icK1BUQQJBUYCmgtiz/PwBdGt1Y4IAlYlwj+bQCTz4jOKib9vCvOGXdeWRd5uG5mtZKTYz9FYD/VhA4CL5m+Y9obMP1aX7Lv/eXAgII/RVv49mq+859Oab9ezsNCBwYi1q9OTKrJ7GDdLty0Lz+aqXGbGPm/G3goDGYwlW0eN2nrOLloLPaOL4cpG6uvvjb/cpBrXzhqVfRyOQ9DqYnJkqkgABCiYKZ9VTUPWffBoXTWZs7a99nNJLHCglhDYnDkJJ1gmvbienAssNqZPhYIUK2YDjCe2jRui9nvVZii0UbRxYCAxtAGCwMHEA9QaOTh3ZLExm3uAoIIBQ3NoXzTN19zqtBqv6yl03lIOHWGZ61wIHAgYvKQWu6KSh8hEbW/W3eC0ytHz0XA/R9AEPFgYOqOJ+g0cmP5K2HjFd8BQQQih+jwnhYfbFqy9mbQOqUWKdYl0JGI4GDEsOBC0Csf88BZ3VE5RKpH+K5uRfQsjUzHBO2bdTk2Ceh1BUAecWCg2pVRb5i2TbAJe0vgFDSwGY1LXX/Wa/AFG2NtM8491nviAkcCBy4rxyENG0afwoDM+fSKRObM1sva0+dh2F/EwjHIwDsorxz0JiwwsMYnTiWSL7/IKsc6GW7Agi9HL0u+F6rIpz1zyB6U8vwRYODyEsqy8lOVZvdDPs3N2PL/uHP+BmZiuikbcfmnYMCVA46Pyc5A6VugTf1Tlq0+SmXS0pNjH8JwDsBNadqt2hwUHXKfzeNbvqqy3mLrfIoIIBQnljmNhO1dekB8AdnN1PWIcNqlFBgYPafvRm16aHZv8OOYX9ncBA6XI1c6XU4CPzXmHhk08T3ZnYBWAdFV9CSdcYVBXXHOXti+tkvA/R6APu0QrSG/0klOmMzHR1nsGPmQFr2y2dz2zxkoJ5SQAChp8JVHGfVXcvfDQ9f5u3ZzB0tthmzv8BBTIL0OhxUb7r85NeFg1bLQY3sd/BpEqSuwUF0E7103c64wZVa5WHjj87AgP8foBD8XPOxADq/UKxoH2etafQhGpv4JF9YadlvCggg9FvEHc1XqaWDuGfoXih1dLJJ5uEucJAgY10cppTt512HYW07pXuswFsFtWkHPwu5DcB2KOyEhxn4agBEcwHsDWD/6qcSkv6s4aBePdKOWwwx14oxM/CHDqbT1gVzkz9RIFIBAQRJDGMF1N3nHgpUgu+Sj/lj7mgCBxnBQf1gCVtnhmS2S1/Dgd5jjagoFhEOAj/Jv4RGN33RePFLx75QQAChL8Kc3STV3We9DaAbOkdgnkQCBwIHsQrk9lih1YNmTjJzOJaPLftX7SqtVy9iJlL7n2fdeQSVoePptPhHJ9ntGGK5lxQQQOilaBXQ1/qnGr4F0JtTb53t/hcWDiJu3jrau7o1WrnRJq72WZX4Qh9DDcaAiU0EDuzgoC15wlp78r0HjASWJtWvyJA/UcBSAbUaA3j18kcBHMK+7ggc9F7lgA0sAgeWS8qycpAAB/A/jdFNV1D9Gxns/RQLZVZAAKHM0c1xbmrz0v0wZ/CJ5me+k8YWOBA4iFVAKgeZVQ6AhzF36sQi/ex1jluUDGWggACCgWjSJVoBddeyE0Fe8Bny+Le6ywoH1Usb4+acmDw2n1aIud5rudTvjxXYJZKYBaAldkwm2LxzkFQ5CD63oI6j0yfvl/1LFOAqIIDAVUrasRRQd535BoC+V/21uvY/gYP8KgfaZ53AAfvxWFQUreGwHjArxkh478THBXTqxPdYi1gaiQJ1BQQQJBWcK6C2nPkOKLoGCEFC0eCg5QC12pWlcsD5tqxCv5CoTVOta6bocAB8DKMTH5P3DpxvdaU3KIBQ+hB3Z4Jqy1l/DIXgc9b1n7aN80PjcO5oqtE3tpphYaN6rlj2bxyuxmYiOmrZksqBXeXAEi6qeen40VI4pKT+CQ9NvocuQqU7O4GM2ssKCCD0cvQK7nsdEq6GQu3Hajr+NE4ygQOefhqSJh6MLDuMRqWuHBQcDoDvY/SYNxPdKHBQ8L2yqO4JIBQ1MiXxS921bAXgXQ9gz7a6LH+GkYcM43BKZBLD/g2bUjlIj1+ixME/MmOQSfwtD/eqT0z/Y5XKsHIA3IyHjzmPLhI4SE9UaRGngACC5EbmCqi7zhwF8AOADqwNprGxZnI4aIwfCRmW/V2XlDUl7X7lQAMOIudmqH9LN0MbTX8s+ofXgLGZto7h/6rwPYxNvEneOch8ayv9AAIIpQ9xMSaofnXWwfBwC6BOYHskcBAjVcLhkCpuwonEOqwYjVxVDgQOdOMfKP8VGpt4T2oaSANRgKGAAAJDJGniRoHaNy6euRoKwdcyJ+eewIHu4cAIUg5wkFrN6MIXIfVH5aACRX9J4xv/kpEI0kQUYCkggMCSSRq5VED9atmfY4D+AgrzIu0KHAgcuMqB/oCD5zHoXUiLN/zI5ToVW6KAAILkQFcUUHctPQXwvgPgqBYHXB0MLTdZRlk8SYWuv5AYcS3XmpJUDrTee2nPhUK/kKi2AANn0NiGZ7qykGXQUisggFDq8BZ7ctVHDiee+VUAb69+qZLAQQaVg4SaPwsyWI1Szl95rFANLFPKziSIfOdkBgo30PjEu4q9ysW7XlZAAKGXo1cS39XdS5fD975W+zXI8J/hjtrsZti/4YKryoH7w0Ej8jEasKRhNRI4SIxGXUOmlDw4UE/B8y6mJRt/opEI0lQU0FZAAEFbMumQhQK1asKyq6EouBENG1+3XMFB9VA33tVbr4tGZiI6aduxgQMm1ST6JJUDx5WDGQA3YXTiAvkIY8Sa4X0AAAX6SURBVBa7kNhsV0AAQXKiUAqozUuPxjD9AArBxyH18lPgIBRLgQPjxC7kOwfqdyDvzTS6caPxvKSjKKCpgN4GrGlcmosCpgqoX595PpR/DYj2Y9lwBQdWVYO2W7f2jT/m1q5tR+CAlTNRjYoHBzsB9Vc0OvkJ4zlJR1HAUAEBBEPhpFs+Cqg7X7cSnvdxAHNjRywMHIQOeO1DXeCgFl8D4Vq6GPQPJ5YrQDR2o9kxeAnxOxg95u3yWwr57DUySqcCAgiSFYVXQK2Ch7cuWwXgw9Vfh2zZ0Bv/xXhHrp9Llv3Dh5uRKXnnwAgOWpjCSPjZbCoGHAQvbvwcU3NW0Gtuf77wi1McLLUCAgilDm+5JlcDhaUfASj4tjiavWx2+2CQygHQhRcSCwUHdWdMU5GUgvJ/Do8uoJHJ58q1cmU2vaqAAEKvRq6P/VZqlYdf3vJ2DA5cCyi7HLa+NdrCQURZXfuQ6cN3DsoEB8C18Pz30sjki328rGXqBVTAbnMt4ITEpf5RQKkLB3DPtpdhprIGwKHaMxc44D3zL9pHGUsBB8qHUh/Ai3t/kZat2aWdu9JBFMhBAQGEHESWIbJVQCkQHlq6L15UH4NPl7I+HllmOIgoSkRHgFGqEDhISV6l++rEXfArF2OQttDI5HS2K0OsiwJ2Cggg2OknvQumgJpYvAfm7H0CoP4RoJMj3RM4kMqBqxxgMBagpgD1QaiB6zC6YZt8yVHBNg1xJ1YBAQRJjtIqoCaWHoAh/zwQfQJEh1Un6upgYN/So+S1/cRCwqnEO7DSYy6VA/vKgaf+DtODf49dcx+lZWuCb0GUP1GgpxQQQOipcImzJgpUH0FsPv1QDA2dCeX/DUBHmtip9amfnKyDWOCgUwFD4Vx914ErQIyahsIMyPssfFyNnfMekXcLzFeZ9CyGAgIIxYiDeJGTAlVY2HLGIZjxTgHUhwB6HX9ogQO2VpEcUEI4UHgISn0WGPgXDM48JO8VsDNEGvaAAgIIPRAkcTE7BdTE8n0xOHUsyFsB8i8B6o8iOoYUOGBHocxwALUDPm6Ah2tBaiuNTD7O1kUaigI9poAAQo8FTNzNToFqdeGOMw/DgH8cfP/fwaOLoYKPTzqGA+2LdL+/cxB6tGMS/qp82qLXRiI8C6jvQKlvw/PvhqKHpUpgEgTp04sKCCD0YtTE51wUqH5z49tPPwS7cCxoYBzAWwA1BpDGumk7mLTPKYED48O9yQVs0YOGk1DqJgziVtDA/bj3pY/QRTdWckk4GUQUKJgCGhtdwTwXd0SBLiig1p46D/sOHoMZ9TKATgXRckAthiKv051eh4PAf+bhWsjHComVg2koTMLDrVDeWhA9iOefe5CW3f1CF9JKhhQFCqmAAEIhwyJO9ZIC1W90/PXvjsa0dwy8gVeB/CUAFgA4EcBAcy7Ms7bWvtuVAw04iHRXa7Kz4Xb2aYW6U6SmoPBrgDbAU5tQwQPw/IcA/FYeFfTSKhNfu6GAAEI3VJcx+0IBNbF4CHPmHAkfR0F5hwN0HIATQDgBCi/v+GVKDkmwzl1Go8QmPQcHT4NwLxTuBbAFHu7FtHoMih7Bv65/jFbp/JJUX6SmTFIUYCkggMCSSRqJAm4VUKsvHMCxTxyEwZlDoLxDQRT8/yNB/ksBdQSAwwEcAdC+HG6IuYLHOx0LCLZwkFL9iPMounIQ/HjRE1DqURAeAegREB6FUk+C8AQw8DgG936cFty8w210xJooIAoECgggSB6IAgVWoPrV0Zh7AObSfMyo/QHMh0Lj/88H0X5Q2K/6v5MKYCL4v70AtScU7QnC3I7p5QIHygdRcMC/CEXPA2o7CNsBbIeP50HqWSjaBsI2ED2Hiv8cBrxnUQn++9QzGJp+hhbcKQd/gXNTXCu/AgII5Y+xzLCPFahWKg57bA/sreYBlWFMDQ2DKsMgfxg0OAyoIZDvQXkD1Z/OVjQAUgSPau9OVFD7imDP96E8HwOkUFEzAE1X/0/NTGFazWAOTWO6sgs7pndh5ws76bz7dvex7DJ1UaAUCvwbCeE2UjyVia0AAAAASUVORK5CYII=;" vertex="1" parent="1">
          <mxGeometry x="350" y="430" width="70" height="70" as="geometry" />
        </mxCell>
        <mxCell id="_2yLPOEbKJ7cdSIosTqB-11" value="GitHub" style="verticalLabelPosition=bottom;html=1;verticalAlign=top;align=center;strokeColor=none;fillColor=#00BEF2;shape=mxgraph.azure.github_code;pointerEvents=1;" vertex="1" parent="1">
          <mxGeometry x="160" y="380" width="70" height="70" as="geometry" />
        </mxCell>
      </root>
    </mxGraphModel>
  </diagram>
</mxfile>
